<mxfile host="app.diagrams.net" agent="Mozilla/5.0 (Windows NT 10.0; Win64; x64) AppleWebKit/537.36 (KHTML, like Gecko) Chrome/129.0.0.0 Safari/537.36" version="24.7.17" pages="4">
  <diagram name="基本过程" id="tdFcZoLiTHiKnwLBQd2-">
    <mxGraphModel dx="954" dy="558" grid="0" gridSize="10" guides="1" tooltips="1" connect="1" arrows="1" fold="1" page="1" pageScale="1" pageWidth="1169" pageHeight="827" math="0" shadow="1">
      <root>
        <mxCell id="0" />
        <mxCell id="1" parent="0" />
        <mxCell id="gl2tzgoZ4D9olNSp2-vS-5" style="edgeStyle=orthogonalEdgeStyle;rounded=0;orthogonalLoop=1;jettySize=auto;html=1;exitX=1;exitY=0.5;exitDx=0;exitDy=0;entryX=0;entryY=0.5;entryDx=0;entryDy=0;" parent="1" source="gl2tzgoZ4D9olNSp2-vS-1" target="gl2tzgoZ4D9olNSp2-vS-2" edge="1">
          <mxGeometry relative="1" as="geometry" />
        </mxCell>
        <mxCell id="gl2tzgoZ4D9olNSp2-vS-1" value="帕克逆变换" style="rounded=0;whiteSpace=wrap;html=1;fillColor=#d5e8d4;strokeColor=#82b366;" parent="1" vertex="1">
          <mxGeometry x="280" y="120" width="80" height="40" as="geometry" />
        </mxCell>
        <mxCell id="gl2tzgoZ4D9olNSp2-vS-6" style="edgeStyle=orthogonalEdgeStyle;rounded=0;orthogonalLoop=1;jettySize=auto;html=1;exitX=0.5;exitY=1;exitDx=0;exitDy=0;entryX=0.5;entryY=0;entryDx=0;entryDy=0;" parent="1" source="gl2tzgoZ4D9olNSp2-vS-2" target="gl2tzgoZ4D9olNSp2-vS-3" edge="1">
          <mxGeometry relative="1" as="geometry" />
        </mxCell>
        <mxCell id="gl2tzgoZ4D9olNSp2-vS-2" value="克拉克逆变换" style="rounded=0;whiteSpace=wrap;html=1;fillColor=#ffe6cc;strokeColor=#d79b00;" parent="1" vertex="1">
          <mxGeometry x="480" y="120" width="120" height="40" as="geometry" />
        </mxCell>
        <mxCell id="gl2tzgoZ4D9olNSp2-vS-7" style="edgeStyle=orthogonalEdgeStyle;rounded=0;orthogonalLoop=1;jettySize=auto;html=1;exitX=0;exitY=0.25;exitDx=0;exitDy=0;entryX=1;entryY=0.25;entryDx=0;entryDy=0;" parent="1" source="gl2tzgoZ4D9olNSp2-vS-3" target="gl2tzgoZ4D9olNSp2-vS-4" edge="1">
          <mxGeometry relative="1" as="geometry" />
        </mxCell>
        <mxCell id="gl2tzgoZ4D9olNSp2-vS-8" style="edgeStyle=orthogonalEdgeStyle;rounded=0;orthogonalLoop=1;jettySize=auto;html=1;exitX=0;exitY=0.5;exitDx=0;exitDy=0;entryX=1;entryY=0.5;entryDx=0;entryDy=0;" parent="1" source="gl2tzgoZ4D9olNSp2-vS-3" target="gl2tzgoZ4D9olNSp2-vS-4" edge="1">
          <mxGeometry relative="1" as="geometry" />
        </mxCell>
        <mxCell id="gl2tzgoZ4D9olNSp2-vS-9" style="edgeStyle=orthogonalEdgeStyle;rounded=0;orthogonalLoop=1;jettySize=auto;html=1;exitX=0;exitY=0.75;exitDx=0;exitDy=0;entryX=1;entryY=0.75;entryDx=0;entryDy=0;" parent="1" source="gl2tzgoZ4D9olNSp2-vS-3" target="gl2tzgoZ4D9olNSp2-vS-4" edge="1">
          <mxGeometry relative="1" as="geometry" />
        </mxCell>
        <mxCell id="gl2tzgoZ4D9olNSp2-vS-3" value="驱动器&lt;div&gt;驱动电机Mos 管&lt;/div&gt;" style="rounded=0;whiteSpace=wrap;html=1;fillColor=#dae8fc;strokeColor=#6c8ebf;" parent="1" vertex="1">
          <mxGeometry x="480" y="240" width="120" height="40" as="geometry" />
        </mxCell>
        <mxCell id="gl2tzgoZ4D9olNSp2-vS-4" value="无刷电机" style="rounded=0;whiteSpace=wrap;html=1;fillColor=#f5f5f5;strokeColor=#666666;fontColor=#333333;" parent="1" vertex="1">
          <mxGeometry x="280" y="240" width="80" height="40" as="geometry" />
        </mxCell>
        <mxCell id="gl2tzgoZ4D9olNSp2-vS-10" value="ia、ib、ic" style="text;html=1;align=center;verticalAlign=middle;resizable=0;points=[];autosize=1;strokeColor=none;fillColor=none;" parent="1" vertex="1">
          <mxGeometry x="550" y="188" width="70" height="30" as="geometry" />
        </mxCell>
        <mxCell id="gl2tzgoZ4D9olNSp2-vS-11" value="" style="shape=flexArrow;endArrow=classic;html=1;rounded=0;" parent="1" edge="1">
          <mxGeometry width="50" height="50" relative="1" as="geometry">
            <mxPoint x="190" y="139.5" as="sourcePoint" />
            <mxPoint x="270" y="139.5" as="targetPoint" />
          </mxGeometry>
        </mxCell>
        <mxCell id="gl2tzgoZ4D9olNSp2-vS-12" value="输入力矩Iq、Dq" style="text;html=1;align=center;verticalAlign=middle;resizable=0;points=[];autosize=1;strokeColor=none;fillColor=none;" parent="1" vertex="1">
          <mxGeometry x="145" y="98" width="110" height="30" as="geometry" />
        </mxCell>
        <mxCell id="gl2tzgoZ4D9olNSp2-vS-13" value="I_alpha、I_beta" style="text;html=1;align=center;verticalAlign=middle;resizable=0;points=[];autosize=1;strokeColor=none;fillColor=none;" parent="1" vertex="1">
          <mxGeometry x="360" y="110" width="110" height="30" as="geometry" />
        </mxCell>
        <mxCell id="PUj1TDatKuRy5CaugxFm-2" value="" style="shape=image;verticalLabelPosition=bottom;labelBackgroundColor=default;verticalAlign=top;aspect=fixed;imageAspect=0;image=data:image/png,iVBORw0KGgoAAAANSUhEUgAAAe8AAADDCAYAAACrkJk0AAAAAXNSR0IArs4c6QAAAARnQU1BAACxjwv8YQUAAAAJcEhZcwAAHYcAAB2HAY/l8WUAACb2SURBVHhe7Z33t+TEtbb9P3nZBsMA9pBMHtKQg7GBAYwBm2zA5JzxNTnnnHM2OeecM8yQ7Hu/78e+9xVssVtnSy11n+7qOud513rWzOnapVaXwquK+lkPIYQQQlkJ80YIIYQyE+aNEEIIZSbMGyGEEMpMmDdCCCGUmTBvhBBCKDNh3gghhFBmwrwRQgihzIR5I4QQQpkJ80YIIYQyE+aNEEIIZSbMGyGEEMpMmDdCCCGUmTBvhBBCKDNh3gghhFBmwrwRQgihzIR5I4QQQpkJ80YIIYQyE+aNEEIIZSbMGyGEEMpMmDdCCCGUmTBvhBBCKDNh3gghhFBmwrwRQgihzIR5I4QQQpkJ80YIIYQyE+aNEEIIZSbMGyGEEMpMmDdCCCGUmTBvhBBCKDNh3gghhFBmwrwRQgihzIR5I4QQQpkJ80YIIYQyE+aNEEIIZSbMGyGEEMpMmDdCCCGUmTBvhBBCKDNh3gghhFBmwrwRQgihzIR5I4QQQpkJ80YIIYQyE+aNEEIIZSbMGyGEEMpMmDdCCCGUmTBvhBBCKDNh3gghhFBmwrwRQgihzIR5I4QQQpkJ80YIIYQyE+aNEEIIZSbMGyGEEMpMmDdCCCGUmTBvhBBCKDP97H/+3//vAQAAQD5g3gAAAJmBeQMAAGQG5g0AAJAZmDcAAEBmYN4AAACZgXkDAABkBuYNAACQGZg3AAAMxdPPPNvbaKONe48++liYDuMD8wYAgFbIpG+6+Zbescce29t66617P//5zwsw78mDeQMAQCtOP+OM3sKFC3s7/OEPxf8x73Rg3gAA0BnMOy2YNwAAdAbzTgvmDQAAncG804J5AwBAZzDvtIxk3hq00IZpOLDah2jfIqL885W25aYLOcoPAM3o2omuqSrTZpCzad5tyyDVfWYa/WNk87aD18Q0nHTah2jfqkyy8HOgbblh3gDD4U2wiWm4j3pm07zPOOMffb+1jpTmHe1PlezMW/82MQ0nnfYh2jfPpAs/B/xJWy0vD+bdnWefe763zz77FGW7zjrr9P520EG9V199LYyFfNExPeKII4vjvMoqq/T223//vuOsaye6pgy7/qbhPuqZTfO2bUW/35PSvKP98dj+R/nHwayY96gFev8DD/TWX3/93u67/zlMnwT+5InS5yvevKN0GI5TTzutKNMlS3bpnXDiiYVx62+tVoWBj8aLL73c++jjT8K0STMbx1nxYhiD1H1tFKJtGkofZd88tq1R779vvvV2b5dddu1tscUWvQcffCiMGQeztf9dSG7en3z6WXkCjLqtUUhR+DmAec8+Rx55VFGef/3rX/s+18Nrymsgd3QvUSVgWs7X2TrO9nsw78GsuGBBuU+D9n82ma3970Jy8770ssvKwhZRzCRIUfg5gHnPLtZMvsGiRb3PPv+iL+2CCy/6IW2DDfo+h3Ycd/zx5bkq3nn3vTBuEthxXmuttYqHCp/W9Tjb7xnVIGcbu2fOxr7Nxv33jTfeLPdHRDHjYl6at1AfkNbKVXNXlD4JMO8YzHv2OPfc88qyvOaaa2ek33rb7WX6tN2oc8BqukLN01HMJPDHWf+vpnc9zl1iJ8lsmrcNWBv1/nvUUUf3Djnk771vvv0uTB8X89a8pwHMOwbznh2efOrp3vLLL1+UY93Yjoceergs6yuuvDKMgXre/+DD3vnnX9B76ulnwvRJ4I/zxhtv0vv6m29nxHQ9zhY7l8079/sv5p0QzDsG854d/rjjjmU5PvHkU2HMTTfdXMaoJSqKgenGH+fLr7gijOl6nC0W855eMO+EYN4xmPfo3HDDjWUZaiRsFCOsL1TsuutuYQxML/44a+rfsq+/CeO6HmeLnQbz1n1S90ihEfO2byuvvHL5+TB+kPv9N8X+Y94/kvvJMy4w79GRYVsZXnzJJWGMUC3M4vbee+8wBqYXf5w1LSyKEUrrcpwtdlrMuw1R3iaUR78R825PEvN+7vkXeoceeliRd/8DDpjofLw6cj95xsW0mfeXXy0t9mnYkcTKp/yiOgq4LUuXLivm6Kp/84MPPwpjjEceebQsP6F5qFGcWLx4cRl3/AknhDFznS5la3z3/b97L73cbbDr66+/EX5uaCaAzpH33v8gTK9SPc5agCeKE6ptdznOFqv9idLnAsPefzWfX3nXWGONYizJPffeG8aNm3lh3jbSct999y1/sLjk0kvD+EmRovBzQDcMO0ZR+iRQH+G+++3X23Cjjcp9EVqIoc2An9tuv6O33XbbFatb+fxCtaBvv/s+zFdFpmIPnR5t++577gnzHHTwwWXczkuWhDFCDyV+m0019LnIvffdVxxjXwaiqWxl7pqSZQPENMdbo42jWEPXuZq0Fb/NNtvMuHep9UNTuPw+tDnP/HHeaeedwxjDvl+0Oc4Wi3n3o+tRTfdq8UjtJSn8Y6LmbcZt8eoTsgJXraMaP0lSFH4OpDZvP+1Gi11oNLH26dHHHi+nl1x77XVh3nffe7/3978fGuZXv6OZ+bbbbjuwJmY3ijXXXLN3+x13/rAPP2KLbuj8rubTPF/7/qZalrZjceKuu+8O4+YiDz/8r95yyy1XW7bqT42mkaoG+7vf/a539dXX9K0XUXc/smv8mGOO7Tuv9HCodJ0HqsH9+c979M477/xim3Zshfanuk3DH+emQWhq+bE40eY4W2zT9+dO1/uvXY9+AZwtt9yy2EYKL0nhHxM17x132qm33nrrlXPw1LSk/EI30mr8JElR+DmgG4Ydoyh9nKimat9dNUY7XiKa06sHw80337xIX2mllcN51eq+sW2o+6aabtiNQnE33njTjDTbl+p+PP/Ci+X2heKa8LFtm4xzR2Uk09ZvvuPOu/rSXnn11d4OO+xQpFWPn5XXnXf9YH6KtbJTq56PFW+8+VZRQ/fGavEyAP0bDR7z57/Wo6imi3EfZ4vFvH/i5FNOKeL9tMAVV1yx+Gw2veSLL78KP6/Sdf9ng4mZ9zPPPlfEnnLqqeVntu6viC64SZKi8HMglXn7Ju5qP7EuKEsTeumDTxcyY0uXSVfTDV+zqht74V8qUU077LDDy/yq1fu06uqBbdlss836tjOXsbJVrbea5svWG7semBastFJx7Owzfy/RIh32uWHXtzdAixe68avrwucRy5Z9XcbUmcK4j7PFY94/sWjDDYsuE/tbfd1WTqN4iT0sGmrdi+KqzGnzthNcT8j2mZ9qcNnll/fFTxrMOyaFeWsErn1n1CeohS8sXVRr5f/1X/8s09RH7dOq+CU11VQaxchYLObTzz7vS7PzRv2k1abdPffcs8ynVgSVZcFjj8/A9+f7B9y5jpWt+pWraVa2uk+89fY75efq19bnfnDSRhv/dC+JulF0o99qq63Kv2++5dYyXtQNgPTnv/Yjihn3cbZ4bTNKnwt0uf9a96s/J+whUKhLzMd3QcdI9xzblqb/RXFVUvjHxMzbTmj7W80dVkDqL/pq6cyn3kmSovBzQMfMjlOUPttcdfXV5fetvvrqteeFLmAdM41O9p+rWdvyi6ZRv0K1NIutW1LTb09Nq1dedVXfuuSq2UfLMap2YPmarhG9Vc9/x3333x/GzUX87z7gwANnNJ1HhqVmbt/X6bs/1EUSjRCX8fpj0PZmr9YUizv4kEPCmHEfZ4vHvH/AZozY3x9+9HFfS92oy2z7cQltZ6R02f/ZYqJ93p7TTj+9LKBBI0QnQYrCz4FJmrf6qddee+3y+wbVmiP8XFvfrFaHncPCN8N6/DYNDaLaY489Gp/MbRS0iAazGVaTFBowlfpBdpJEZas+cJlz21rPiSedVOY9/PAjwpgqarK2PJqWFsUIv391+zPMcV511VVbH2fLg3nHnH/BhWUZNc3oaIvGV2hbm27afuDbvDJvGxko9EQaxUwSzDtmkub99DPPlt8lutZA1Tfu82v6URTnscFS4swzzwpj7Nyo46STT56R5+NPPu2LUT9tNcbwr7Ec5lrKmWHKtsrixT8ZcZt7ie920fGPYkR1bEX0jvBhj/Nxxx0XxkRYHsw7Zuutty7LqO0DXxM2XqbN0rVGCv9IYt6aHmGFrb6qKGbSpCj8HJikedsTr1HtXx6Epgx1ya90H9+0wINvzo+o9rP6biHh0zyaJmUxqnVHBjHX6Vq2HtWaLU7mGMVU8S8G8c3vVXwXzPbbbx/GDHOcxQsvvhTGRVgezHsm/oF/tl6lq+tQ29O0xSg9Yt6Yt5ozrcDVfG6f6+RcuuzrvtgI3XQVq74q3fB1YURxXcC8YyZp3mrytO8a5kL0C6i0yV8dJVw3aMmQscrgda7YuW9URzi//MorZZqaSH2aR4OWLK7rdTSX6FK2Ht/91rY2a9e6aOrv9vepulHHwxznNt05HsuHec/EH0sNPrXPdS23WXVPUwhvuvmWYt7/Aw8+2PcwNuh+4Bl2/0dh4uatZiUrnGoBaXuD+ixsXWANQNGgE1utaMmSXfriup7oKQo/ByZp3n7a1l577RXGNNE1v59OphWyfJpGsuqc0PlQd37bOSPU/+3TPv/iyzKtru9MK7vZXHQN2pwvte6uZdv0bm7f/fb4E0+Wnyt/Xf+z3beEnyfsUdP6CiusUMaphmdp2q5tu+txFm26czyWD/OeiT/+vnxsez62ihbrUYxW2tP0Mv3f8m2yyaZhnjqG3f9RmLh5248U/oZn8/SaliHcYNGiIqY6fUijVPW5npzsMx3UulfyRaQo/ByYpHmrz9m+q+nFDlWsebxLfjWd2kAjjRaupmtBDtvWwoULZ6QbFhMNulQ+pUVzmMXZZ59T5k89VXKSdC3buuvYn5u+WduaUutq1ZanqZndTyXzcbaMrZ9L3OU4dzmvDcuLeffjuz/8VEM9BKvpu27Aq977bgMRVeu2zzVV1LbXdbDsvDBvGbYVkD8ZVWuK5noaSlMeNXVW0zS9RGmqjWvqkB4ENHVAB6kaWwfmHTNJ89ZqWfZdeiCLYjxqxVGLi467/u/zNzW1qua37rrrlrHRKld+/em6Ueg6vywmeui06UjRoCi7wSh9t93+NCN9LuPLtm5QkAYrKn3BggW1/cPWCic04tg+17WsB7O333m3L17487na2uLxU8n8g5keCPSZv3e1Pc515j4I2w/Mux87FsJ7kG2rbnEmM26t0lZNs+3ZkrltSeEfEzdvPwHeTkb74XUFZhepLoK65epsm3piVp/S0UcfE8bVkaLwc2CS5i3sIa3pQU6o2VI3SzNu+9zyqwmz7lzxqyjVzQO3c1v/1t00jzzyqMZ99bW3apqdb1HaXMfMW2WrPscoRk3lijnrrLPDdGHHSNjcXs3L1bGv61f287arS916/Lb9gDmtm13tkhn3cbb8mHc/vtytbOx+pe1V48X1199QpK+22moz0mzw4y9+8YtWY688Kfxj4uatviSbY6kL1F4uUbe6la/dNA1I0U1cMeecc27RV9VlNKdIUfg5MGnz9tO9qsasc0FvmLJzRjfoau3K59eCKv7Gq99i56zy6lz0eT2qSStO50W1L1qDlOwtUoPOF32P4qwJV9syY9JbtKrx8wG9oEW/X61o1RkBuoHaKzMHNV36mrfGzqimpZa96nnjsXXMRdO61X4wo84b7afyamyCXnhTjR/ncfb7EaXPBYa9/9rxVD67LzT5kd5SpxjVvqtp1myud3BU0waRwj8mbt5CF4IuDuVXP2XTKli+X6NpMQXblzP+8Y/O+yNSFH4OTNq8hZ56bV1rrTmt8Qt+PraOkaaFRXmFzy9U07Nmcv0/ai6L0Oh3rdilJli9UEff61dyavM6RxmEluVUvGqE+lfbmE9LoEbYzABftisuWNCpbLXKnZWtLbOqv+uMW9j2ZfBRuqF7lFUydM7oPNSYm7rBZuM8zrbPmHeMWuFk4rqumzxC2DkW3QPsAayuItnEvDHvLujdrPoOvTJQL92PYoTtiy64phpVHZh3TArzNtQ3rfEMOjY6D9RM1mVaoM+v/vAuUz8MLbWp+Z76frXq6EahGl5TrS1CebQfuvk3ncfzCZWJjulFF188K2Wrf6N0jwa1quLQZPCG7iPaJ21b//olcesYx3G26w/zHo033nizLMvoIcze4173gqImJrH/VabevK2PXLWvKN0YdV9SFH4OpDRvAMC8Zws/J7+6NK263yxN4yb0AKn/100lrIJ5B+gpSN+hmne1f8zQU7FihEZ+RjGDwLxjMG+AtNj1h3mPhgzbyrI6jsW+37pTbrn1toGDZj2Ydw1WMH6amPo1n3jyqWIwiOZhWoxN61EfSJeTPUXh5wDmDZAWu/4w79GxsRY2sFBdaVo/39Z8MPPWfqgrx+dtIoV/ZGHewgpd08VUwPq/VmPzCzjYgAP1Xci8ff5BYN4xmDdAWuz6w7xHR2ZtswDMv2ytAZtBMsx+YN4DULOH+i20Zm30/mSht/xoYEKU1gTmHYN5A6TFrr+5bN42zWtS918tzKTyrC7QpKmmw5Qz5p0QzDsG8wZIi11/c9m8c7//Yt4JwbxjMG+AtNj1h3lPL5h3QjDvGMwbIC12/WHe0wvmnRDMOwbzBkiLXX+Y9/SCeScE847BvAHSYtcf5j29YN4JwbxjMG+AtNj1h3lPL5h3QsZd+Hoblr7D0NQI//egzwehfNH3jgrmDZAWu/4w7+klxf5j3j8y7sK37Y+LQW9JGhbMGyAtdv3NZfOe9Dzv2QbzTkiKws8BzBsgLXb9UfOeXjDvhGDeMZg3QFrs+sO8pxfMOyGYdwzmDZAWu/4w7+kF804I5h2DeQOkxa4/zHt6wbwTgnnHYN4AabHrD/OeXjDvhEyi8HXxjZPoO0dF21W5iCgdAMaLXX/jusanAcy7O5j3j4y78PV+cW1/nETfOyqYN0Ba7PrDvKcXzDsh4y58vWNcF984ib53VLRdlYuI0gFgvNj1N65rfBrAvLuDef9I7ifPuMC8AdJi1x/mPb1g3gnBvGMwb4C02PWHeU8vmHdCMO8YzBsgLXb9Yd7TC+adEMw7BvMGSItdf5j39DLvzfutt98JP58EmHcM5j2d3HDDjb2dlywpjsv666/fO+qoo3vLln0dxkI6Xn31teLeohcH6VhtvfXWne+Xdv1h3u354MOPet98+12YNg5S+MdUmPeXXy3tLVmyS7EtndxRzLhJUfg5gHn/gM4P3YijtElj0w533/3PvVtvu7137LHHFn9vt912xayGKA9MHh0bu3Z0/tx+x529fffdt/w7yhNh28C827Hf/vsX29pggw0mds2m8I+pMO8777q72I6R4iRNUfg5MN/Ne+n/1Wbt909DGZhx61//+S677Fp8fsKJJ/Z9Dmnwxq3/2+f33Htv8dmKK67Ye+fd9/ry1GHbwbwH8+CDD5XlJUb1prbMW/O+/4EHysLW01IUM24w75j5bt5WUxIrLlhQtBJFcZPAjHuDRYt6n33+RV/a+RdcWKSts846vWVff9OXBpPFV0b++c8zZ6T/9re/LdLOPfe8GWkRti3MezDeS0QUMw7mrXkLvYy97ck8DjDvmPlu3hdfckn5+9U8HcVMAl0bth/XXHPtjHQ1yVq6anfVdJgMn3z6WW/jjTcpjoMqIl98+dWMmMWLNyvSt99++xlpEXZcMe92yEt0rb740sth+jiY1+adGsw7Zr6bt7j22uuS3jiffOrp3vLLL18cA/VzRzH33X9/eZwuufTSMAbGz6GHHlYehwsvuiiM2XLLLYv01VdfPUyvYtvDvKcXzDshmHcM5p2eP+64Y3kMnnjyqTBGDxgWk7KFYD5z3XXXl8dg88037/3nv/8njFPXhsVVuz8iLBbznl4w74Rg3jGYd1o0JczKX4PSohjhm9V33XW3MAbGi0b72zFo6gLUYDWLe+bZ58IYj8Vi3tML5p0QzDsG806LjSIX6n+PYsQBBx5Yxu29995hDIyPu++5pyz/ppHkn372eRknXnvt9TDOY7GY9/Qyr8z7+utv6O25555Ffv2rv6O4SYF5x8wF89YIcQ1eef6FF4ubZxRT5bvv/9176eX2A16WLl3WGzRARk2kKs/33v8gTK/yyCOPlmUv3nzr7TBOrLXWWmXc8SecEMbkxOuvv1GU/zALbXz9zbe9555/oSjrLsewihb60HgDzRXW8Y1iDP/K378ddFAYI/z1JNrMDLBYzDvGe4kedpsecsfFvDHvCy68qMinaTj2o4X67aL4SYB5x+Rs3vfed19v3/32K/ff0KCvuhHZWuVvn332KQeI2eplUayheNv2yiuvXJzXlibzUR+0Rh5bjFATq2prfjtVDjr44DJeq6lFMUJG57ed4uY1KjLH444/vujfVxn636NrclBZ/fs//90755xze5tt9sNIbo9WN+tyj7riyit7W2yxxYzt1M2hf/a55/viNHgwihOXXnZZGfeb3/wmjKli8Zj3TG66+ZYiX9VLJj3uI4V/TNy8rbBvvPGm4m89eVqBNz2xjpsUhZ8DuZr3ww//q7fccsv11lxzzWIalabwCM3BXXfddQuDqNaUtSCLpu+oFqVarv/tdef4yaecUqSfffY5ff3Tmq7yr3890tt2223LBwDVBlXzt3NN88Z144+2K9rWpmU2FifuuvvuMG5aUdOxykn7rrLXoiaq9QrVemW+GuRVN8f+lltvK0dw60HK57eyFupaiPJ7LP6QQ/7ee+HFl4pavC1xavtXzaNR5fYdomktgP0POKCM04NGFFPF4jHvfl586aViznzkJTpfqvHjZJj9H5WJm7dujn5+o39q1YntY7ugJ3PV6FXr0Co7UUwTKQo/B3I0bzWPy7S1z3fceVdfmn7PGmusUaRV50trmo+M1v72q2TtsccefbHijTffKmro9pTvy8rWso4GmT39zLNl3GGHHT4jXeg3WIxQzVv7oPMzwsd+9PEn4TanER0f22+Vv08z47Z0PXj5dOFrskceedSMdOGnb910081hjLB7QLRE8/nnX1Buo7oErV/IR0THx/Bxdce+isVj3v3IL/z16r0E8x6AnYxtzduWBvT92yedfHJZ4LoQfXwbdIH/5S9/KS443URVe++yT0aKws+BHM3bBm+pNldN0w3Tfo83A9WK9ZlvIrdzQkTNcJZuN1VfVkLfHy3SoSZii6k737wpdWGbbbYJtzeN+N9YNW6hhyv/26rmpdYVSzviiCP70jyaXmdxu+32pzBG3SUWUx0prhrdwoULizS1lnz73fd96ZbWFXXr+O3UYfGY90/YSmq+K+PU004ry2qUiuAwpPCPiZq3mrTWW2+9vs+suUvIiH3aIOzJXM2V/nPrU2+7XyJF4edAbuatgWbWX61+y2q6zNmOs2/etM99rWrDjTYqf3v1HBOqwW+11Vbl337EsVbZqhtg9sCDD5Zxvn/cYwNwxKBz0uJEtBznNOLPKzUfq8uiGuO7Iapl8PY77xb3EqXJPAe9kdC2U9fP7FsAjjlm5oOapVXvKWq6tTTRZLB+tT6do9Fvjmiz7dzpev/VA5Zi/Tx530pz2eWX98WPmxT+kWTAmqG+OStsFXwUU8fHn3xa5FFfYzXNbgx1N8YIzDsmN/OuDt5SLdw3navPOboJqi/Tn8e+CU4mHTVF61zxeXwrkh4gfazHzjWhQVpRzKINNyxjmq4vX/sUjz72eBg3TegYqLnT9rlpTrRqWP7FHobmslv+QS9j0UOUxYpoetblV1zRF3Pcccf1Hn/iyTJdx1996D6PuPmWW/vyVdM9ftqfHs6imAjLg3nX89TTz5TlpLEiXy2d7DsIRt3/YUhq3n6UbtdtnHnmWUX+KM36Kpua0qqkKPwcGNa8NcDK8s0mUfNqFTUdV/OpD1wGHdWgI0459dQyb9tzU103lkdTjKIYoTEfFle3P9Z6IKr99p6DDzmkjGs7ACo1Mlvb5y5v1zKs+81oGvQnqi+r0FiFaoyM2ccYqiCojOuOpyoPFrvppovDGFF9gOjSRWh5MO96Tjv99LKc9OAVxYyTFP6RzLzVPGmFXVezqUN9Tpp6o6azKN2aQLu8oAHzjhnWvDVoUGXaFo3O9v/a/6t/tzmmirV9jvD92nX47hwNMItiPH4Qmh4Uohih89ziRHTeq1XJxzQ1CdvAPJHLFLE//Wn3cp/r1mpvwg9A22nnncMYj2+uVp91FCN8ZSIiKl8/hqKpn9Xvg9Y0//yLL8O4CMuHedfjr1ffYjIpRt3/YUhm3n45x65z8jQ1Ri9cj9J0M9TDgJ6YuzSdpCj8HBjWvFOjhwcNGNN0Mdt/j5qbo3zC90lHI48j/ANDNJ3I8P24dW+V8k2Av/rVr8IY4fvY1Qzdtg81NTbaXwzz/nGtG27529w7bBCrGHR9a+qfX3vcE41g9k3hag2sphs+ruv9zvJh3jGaQWBltMMOO4Qx42ZembdfB9jfSHWCLhtwE9prr73KAQk2Rcz6xbQvMu6ug99SFH4O5Grehmo40WItTTdQH6uFP6KYKjZPWTT1d/vanVoSopiXX3mljGmqxWtqlMWdddbZYcy0UW2e1roPUVwTfnR3m24Qb8Z108mq6BioSXyTTTYt84pqK4juRZZ25VVX9aUZ1SZzPZxFcXVYPsw7ZsmSXcoyuujii8vP23iJUGueWnM0t98W2FE3SdNDeJV5Y96+iXHx4v5+IjV/DGpKW3XVVXuvvvbTwgmeYYxbYN4xuZi3jrmMUbW6uvPRny+6UKMYP1BNtXY1YVuaxlBEzfaaDmZ5RN3N+f0PPuytsMIKZZymp1maBkypRUn/1wOHxVSvD8NamBQjc/L7Oc1U568Ps3ypHw8w6FrXTdhif/nLX84Y0KeHf1Ukmq573zWh0eU+zT9ARfPQhT/vugxUMywv5j0T7yUrrbRysdKepQ3yEj1UqUVE15geuG0uv+1L3X0kYtj9H4Uk5m0/VGhunn1uIzevvvqavniPbq4aiWt/a3Udbe+qq68uavBacWeYOX4pCj8HcjFvPbTZfjbtq6XXLcXrz00/W0HN8PqsurCL8AOi/KIRVfSebYvzU8xUm/v1r3/d9x5uq13Wzdv2+5lyWeGufP/v//SZb9u1y/V77f82RUz4mIg//PGPZWx1ZspDDz1cpgn/HR5/DVRf4ennqus88GnCP2Rpv6N5/4Ow7WPeM/HXgW9VGeQlegi37lX/uZ8xMu1jppKYt+UT/v3EWkBBTSA+toqekJoGHFkhNvVpRqQo/BzIxbxtH4X6LaMYXYxKV01VS6VGMf7c9DVoPRDq5hu92MTfQLQeeTXd0DYszjdzq69UA6n8VCTV8hW32mqrlZ8ZfrBn21W6pgnfxTDoZS7CytfuM7///e/L/NXVzjyHH35EGaeukGq67iWWLupGlNv3R+vL+yZxtZ5U0/3I+qZ9bcLyY94z8derL58mL9ED2AaLFhV5qg9cvhUtGkxax7D7PwpJzFuLIFgB2Wfahp6EfFNihJpBtFZ1lCasEKMaUhMpCj8HcjFve/GHBidFU4+0RrXOHcVoLepqumEx/vfaCl1103v8DaSpFuz7RzUf3T7Xgi7VgVt+/rD/PXrosM8HPehOK34t9qZ7h951veNOOxVxfoyCz183R9zHaKpXFOPP7TP+EY8/8Evk1t2bbGpi9d0MPu9jjz/Rl9YF2wbmPRM/P9/KR9tS607dqHN7oNL1WE2z6y4anNhECv9IYt5+uUKd8HbD1CjfKN6jPsNq05XHClH9F1F6HSkKPwdyMW87fgf+7W/FoBObRqjXb+oittreoJG+J550Ut/vtd9ft6aAsHjRNGdZxm5xMgLd3NXfWtcvZ4PbdC5rNTj171n/a9drbtrwo6/1W9R3rdHy6pPWw5WOo1ojdBONHoh8ftWwVYPS4CTdW/xUMr20pJrX4+9hOiaqeWk7erjy5msDYiOs20QPkGpJ0PK3lnfBSisNNQbHY/uAec9ED+X2JjnvJXUrrKnlzMozGuRp6yZUH8QGMez+j0IS8xZaKEE3JW1D/0YLJ1RRs1bTqxGFBiJpn9SfFaXXkaLwcyAX8xZqBq2+TlJooJLMu00flh4M/ZxRoeliTX2VFjdoMJIGolVfWal5ytHKXULfqb5xH7/KKqsMdb1NI1p8xvdfe3QdqqUj6qYw6vKr1qXj7bvk6lBTtu/O8Ky99trFw16bfvnzzju/eNjw+XXejGrcwraHecfoHNG5orzqgmpatMffz6LytLEzXceRzCvzHgat21w3vUboItPNTfukkb1RTB2Yd0xO5i1U81HTl6aM6KFQ+99mukgV5dM2oqU0q6jFSDePQetrC9UUVCvT+aaRzlFMFdUIFa8pb1q7PYrJFdW29VCu5k8N2NNDd5dr1+cXGqdQfXFIGzRGRjds1cY0fa1NZaKKzjPlbXvetMWuv8hs5gqTuv/aOAfNJKmm6ZhZWXdd9S+Ff2Rl3vq+6NWMhvVzRX0Zg0hR+DmQm3kDzDXs+sO8R0dz8eu+RyPTlda1v1tg3gNQc5jWQq572b3eIqX9GebJG/OOwbwB0mLXH+Y9OhoPo+/x042Fujesybxrf7fAvBvQ4g5anEXv7j766GPKz9VfqOY2PS0Nu0CLwLxjMG+AtNj1h3nPDlbJs6mg6iP360TYYkldwLwbUJ+i5mpq7p1GFGoRC61jq+/X23xGfSkD5h2DeQOkxa4/zHv20NKn+j55h2ZwaMChlfOg6coRmHcDGhHq1w7WgAI9MS37+pu+uGHBvGMwb4C02PWHec8uWmDHPOS6664vvn+Y/m6BeTegBVyGXaGoDZh3DOYNkBa7/jDv8WErGta982AQ2Zr3IEY96dSMoQUQorS2eBNqAvPup225NU3hA4B6dO1E11SV+WDegxjXfcb6vOvecjeN/pGFeWvifd0Sh23BvIejbblNovUFYC7S1rgw79m9z6jrVWWq8VS2ff0dlXPb+2A25m0/tA1R/rZoVTX1SURpbYn2qY4o/3wlKp86ovwA0Ex0LdUR5Z8LRL+1jij/MDQ9MFRjo/2oo5p3XIxk3gAAADB5MG8AAIDMwLwBAAAyA/MGAADIDMwbAAAgMzBvAACAzMC8AQAAMgPzBgAAyIyf9RBCCCGUlTBvhBBCKDNh3gghhFBmwrwRQgihzIR5I4QQQpkJ80YIIYQyE+aNEEIIZSbMGyGEEMpMmDdCCCGUmTBvhBBCKDNh3gghhFBmwrwRQgihzIR5I4QQQpkJ80YIIYQyE+aNEEIIZSbMGyGEEMpMmDdCCCGUmTBvhBBCKDNh3gghhFBmwrwRQgihzIR5I4QQQpkJ80YIIYQyE+aNEEIIZSbMGyGEEMpMmDdCCCGUmTBvhBBCKDNh3gghhFBmwrwRQgihrNTr/S+7G3/0WNSVRQAAAABJRU5ErkJggg==;" vertex="1" parent="1">
          <mxGeometry x="220" y="20" width="182.69" height="71.97" as="geometry" />
        </mxCell>
        <mxCell id="PUj1TDatKuRy5CaugxFm-3" value="" style="shape=image;verticalLabelPosition=bottom;labelBackgroundColor=default;verticalAlign=top;aspect=fixed;imageAspect=0;image=data:image/png,/9j/4AAQSkZJRgABAQAAAQABAAD/2wBDAAEBAQEBAQEBAQEBAQEBAQEBAQEBAQEBAQEBAQEBAQEBAQEBAQEBAQEBAQEBAQEBAQEBAQEBAQEBAQEBAQEBAQH/2wBDAQEBAQEBAQEBAQEBAQEBAQEBAQEBAQEBAQEBAQEBAQEBAQEBAQEBAQEBAQEBAQEBAQEBAQEBAQEBAQEBAQEBAQH/wAARCADrAbsDASIAAhEBAxEB/8QAHQABAAMBAQEBAQEAAAAAAAAAAAgJCgcGBQMEAv/EAFAQAAAGAgEBBAcCCwIKCAcAAAACAwQFBgEHCAkSFBU5ChETFni2txe4GBkhODpZdneGh7N1mCMxNldolZbV19gaIiQmMjdD5mJxeZehtdb/xAAUAQEAAAAAAAAAAAAAAAAAAAAA/8QAFBEBAAAAAAAAAAAAAAAAAAAAAP/aAAwDAQACEQMRAD8A38AAAAAAAAAAAAAAAAAAAAAAAAAAAAAAAAAAAAAAAAAAAAAAAAAAAAAAAAAAAAAAAAAAAAAAAAAAAAAAAAAAAAAAAAAAAAAAAAAAAAAAAAAAAAAAAAAAAAAAAAAAAAAAAAAAAAAAAAAAAAAAAAAAAAAAAAAAAAAAAAAAAAAAAAAAAAAAAAAAAAAAAAAAAAAAAAAAAAAAAAAAAAAAAAAAAAAAAAAAxHVTpqaK6lXWV6olH3pa9s1SJ1pZ2VrgnGpp2nwUi7kZZ7FxDlGWWuFEvbZdkRsXB0E2bRguVf1mUcqJ/wCCFyfFH0enhfw95B615Jaz2dyfnLzqyTlJWvxV6umqZOpvHEtXZisuSTLGA0rWJhwiRhNu1kCsp2OUK7TbqKKKIkUbqhe8AAAAI78mOSEBxfocVfbBrbeG1kpq2MabG1Lj/quf29e15WQh56bQcqVmu4w5aQpG9edtnE08Vbx7eRdxTBVcq8k2Kar/AIv9W+/8n+pXZOFWeNVo0DTaJo+e2LZm28WSkbvh1YVs65mqZ3ysQs66rtCh3tOvSEo+gJI9qn3Kr6POpI15Rm8jXYXkAAAAAAAAAAAAAAAAAADxex9g1HU2v7ttG/zLavUfXdVn7rbpx3nOG8VXazGOZiXfKFL6zqZbsWixyIp4MsupgiKJDqqEJkPaAKXOPvMjqKcy9ZP+T3HPRHG6paBkpO5Z09Q972PZkVurdlZrTx/GRU6SfraJ6PrAtmko5drFHloi4MFDZ7yo+Sh8ITDuX/APnVQOe+mX2x6xXpXXl4pNrlddbj1DZXrJ5adYbEgTYTlISQUaexM9inOe0vAzSrCMNJt03KS8ewko+SjmYTkAAAAAQa6gHT/031HtN1rR+8LLs2q1Oq7Nhtqx8hqqZq0HYVrDB1a51FozeO7dTLzGqQqkbeZZdw3QiW7475vHKpSKLdFy2dhOUBj85rejf8HuN/Efkbvuj7U5WStw1Bp+8bArUba7xqJ9Wn0zWYR1JMG04ziNGQUo5jFl0CEdosJmMdKI5MVF63PnCmLa/R9PKG4j/wA+/vOboAXMAAAAAAAAAAAAAAAAAAAAAAAADFFN9OnSfUk67XUd1XvK0bTqteotSp+wIh5qibqUHMuZklZ0tXMNpFxb6RemK0Z3Gbdq5RbRzN13pNufD3CJFEFba+NHo6fCbivvnV/IfXu0eU0zddTWdva65F3K7alkKu9kWzdy2IjNsoTSFdlnLLKbpTJ02M3Gr5PgmcOSlwYpgvyAQz57b+3pxr442PZfHDjrauT+3E5qvV+t60qzCVlDo4m3uUHlqnY2vJObI+r0A2TOd41gGyj1V05YlcuIqJ8Sm4yQemrRdrvqLVtz2VSc612HbteUyzXnXZnyskeh22drsdKWGnLP1mjFV2vWpV06h3Cx2iOTrM1M9nOPUcwdJABWb1FelTx66m32PfbzctzVL7EvtB91fsjsNIgfEPtJ9yPHPeH3y13fu9909wYfwnw3wn2HeZLvnf8A2zXuYWZAMPnVg6CnD/gnwl2PyS1HsfknYrzULBruKjIrY1w1hL1NdvbbxB1mSO+Y1nTtQmFVkGEkusxM3nWyabsiKi6blEp26mrfpyeXpwP+DPi/9EKOAmYAAAAAAAAAAAAAzM9MrzyOsP8Aw/8AMUYNMwzM9MrzyOsP/D/zFGDTMAAAAAy0aH/Sn+anwzVX6HcSxqXGWjQ/6U/zU+Gaq/Q7iWA1LgAAAAAAAAAAAAAAAAKJ/SONiStD6W20Y2Jkl4xXZewNV67eKNj4SWeRTq0J2yUjcK4x7UiEgyqKzZ8RE6eXTA7pkvk7Ry5RVvYFIHpEGrJrZ3S23M6gI40o+1hZ9cbTXbJerLhOFgLS1h7JIolz6imLD12xSku99ZiZLGsXqhO2oQiKgTo6a7FtH9O7gk3aJ4SSU4fcbnxy4/xZcyen6fJPVP8A5rPHa6xv/iUyKRekDbn8N1kes3q1m7OnXLHs23bFcRWT5MjmwV/dFjjzySJM57KKymNhSKbsyZSmcYO1KuY/dUOxdn0zpZlNdOrgo8YKlWQR4i8eIlQ5DFNgr2B1TVYKSSzkuc4wZvIxzpA5c57RDpmKbGDYzjFGvRXp09Y+rV1nN1kbFc1CJ3ltXWrafTVIo0eyU9yFu80wZxqxcmTfERgqOk7eqNjnI0SdxJlc4LItcnDVQAAAAAAIAdVfy2ecXwzba+U5ARm9H08obiP/AD7+85ugSZ6q/ls84vhm218pyAjN6Pp5Q3Ef+ff3nN0ALmAAAAAAAAAAAAAAAAAAAAAAAGZvgr+kS9VH9zNR/ocfhphVVTQTUWWUIiiiQ6qqqpypppJplydRRRQ+cFIQhcZMc5s4KUuM5znGMZyMz3BX9Il6qP7maj/Q4/DSXYq/E2yvztWn2uX0FZYaTr80yK5dszPImZZLx0k1w7YLtXzXLhm5WRw5ZuW7tDJ/at10likUKFFO6espc9Xo8f8AkBE6KrFg4Vb938vx7okypc7AjyN2H6ncixzvak6+b1NaqtdWIvYKXZwEBKWF5cL2k4gJVI9QYzLLC994yubZp1Y5c9a/jPxKpbaOgeJnSb1LWti2Gvx5zGp0Haa0yq8nW64sd05LHEbxJkNR1pRu9O8cNIus3JBUxvVIYQ0s6w3Brjcur6zufXVlSnNYXGCNZ63bXcdMVxlJVwpnGCzpWtoj4WTaxK6TZV40fvWLZs9jcoyjRReNctnSodKAV/S/VG4PQEAveJvcbuJ1SSYn6yx3k/1nthtoWw2usP3MbM1Sn7rUo+NaXSwJOmMmnHsKpZZjx48JY0q+pKuKvZEYqfySqayaayKhFUVSEVSVSOVRNVNQuDEUTOXOSnIcucGIcuclMXOM4znGcZAUb+kZ+VFvH9s9JfVqpif/AE5PL04H/Bnxf+iFHEAPSM/Ki3j+2ekvq1UxP/pyeXpwP+DPi/8ARCjgJmAAAAAAAAAAAAAMzPTK88jrD/w/8xRg0zDMz0yvPI6w/wDD/wAxRg0zAAAADhfILXe4tm0yMr2k+Q0xxos6FoYystfoDWuvNoy8jWm0ZMN3dUZwmzo2aq8ZmRlHkNJLTqkPIvm7eGVjmiKPiijxtULDdFTaFe5O3XmVDdSffbDkrsSHTr9x2elp3RBncxCIsKxFoxXu4rWVKbHsEIym1mPQbRVdYpIsolBqkUiCrki19wAOZacqWwqLret1Tam13u8L3EYlk5raUnTqvQZK1JOZ2TewykhVKU3aVaOexMC5jIF2vCsmDSWXi1Jnw9grIKs0emgAAAAAAAAAAAAAAAD4FrqtcvNYsVKuELH2Op22Dla1Zq/LNyO4ubgZtivGy8TItVMZI4ZSDByu1cpGx6joqnL+T1+sffABTTQ+BHODjDRJLjrw55oa/qfGhdxY/s/S3bpGR2fuzj1EWmSkJB3XtYXKPvlcrNvjYB1IOZKpm2fV5teNdL9weZkIps3QxNvhTwu1LwX0uz1BqzxaZdP5Z/b9j7Iti6chfdrbDm8kUnrvdJYpCmeSL0xE2zJtjJkYyMbNWRDuFiOXruXYAAAAAAAAgB1V/LZ5xfDNtr5TkBGb0fTyhuI/8+/vOboEmeqv5bPOL4ZttfKcgIzej6eUNxH/AJ9/ec3QAuYAAAAAAAAAAAAAAAAAAAAAAAZm+Cv6RL1Uf3M1H+hx+GmQZm+Cv6RL1Uf3M1H+hx+GmQBTxJdJYjbf/LTauvOTF11xr/nKvXz8kqBEUavP71Kx0SaSLN1nWm5nMqi/1pXLw0sNmY2rDWmzlnK3k2SlatNceQrJ1nw3W/za9Q9MJzqLQRi69rVrtmjeNLyQZKKJRNC09ZpVnTVGj6Qc95cMK2u0aQdKknirgrg8ZNqtTu8qOjZUvAHkr5QqTtGnWLXux6pX7zRrdGOIWz1K0xTObr87FucY9syk4x+ku1dI5MUipMKJ5Miumk4RMmskmoUKCupVB6gjK703+k1rV/V2ETbeRGiCbLpUaaPaqQnG7S8fLXCySFlimOCNohW4L1lWfZvZbCRZt7XrHI5w8yg/eIXpaW2zXt7arpG4KhHz8dUthwydlqpLMyaR0s/rT1dfwGfMzZSEmijHWaKI0sUH23fe1ISUjlX7Vg+UcMG3HM8D+GR6ayoC3GTTDqpR9ka3BrFPaLCvjYtDOM8Cbzi8i8bLyryQLXvXWVF3j5fK9WMasL4UgDGjsypYsWUYyZxsazax8dHtW7FgwYt0mjJiyaJEQas2bVAiaDZq2QTTRbt0UyJIpEImmQpClLgKPvSM/Ki3j+2ekvq1UxP/AKcnl6cD/gz4v/RCjiAHpGflRbx/bPSX1aqYn/05PL04H/Bnxf8AohRwEzAAAAAAAAAAAAAGZnpleeR1h/4f+YowaZhmZ6ZXnkdYf+H/AJijBpmAAAAAAAAAAAAAAAAAAAAAAAAAAAAAfi5ct2bdw8eOEWrRqiq5dOnKqaDds3QIZVdw4XVMRJFFFIplFVVDFTTIUxzmwXGc4gjC9QjW9ri2djpOkeXd8psymZ9VL1S+NGxLDTbtXVlT5hrfUJ5kyM2mqtZo7DebrsolhPv8O+ZujoN1FToJhPQBDuscyoO02WvVlHjzzEhFbFORMElM2fjPsSArUQpLP27AknYZ18yIyhYNgZxh1LSzs5WscwScO1zYSRPkTEAAAAEAOqv5bPOL4ZttfKcgIzej6eUNxH/n395zdAkz1V/LZ5xfDNtr5TkBGb0fTyhuI/8APv7zm6AFzAhn1Eth3TUnBblftDXNge1S/a90Zf7jTrJHlbneQljr0G5lIiRRReIuWTnuz1sioozfNXTB4lg7V81ctFlkFJmCAHVX8tnnF8M22vlOQAVm8ceI/Vd5AcetD75/HU3OpfbbpnV+3PdX8DPUs97s/aTSIO5e73jn2gwvjXgvjXhvi3g8T4j3bvnhrD23dUtAlBg7BWKLSq3bLWtfLVXqlXIOzXlzGIwri52CJh2bCZtbiGbOXreJWsUi3cy6sYg8dosFHhmqTlciRVTxg6cnl6cD/gz4v/RCjj5XJ3nJVePNid68rWsNi7+21Eausu7rVr/V6tOY/Z9qKqEdnf33Y1rvVnqtaqkbMKxktF0uMO+fWO6TcW+YQcMugykHzIPP8AeoLSuoPW9vXHXurNoa/quq9nPNZtpzYcW0YM7s+YNCunzyAM0cOMJLxeFG5ZqGd5LIw2JGK78VNd6Zu3sBEZeHvKLUnMzj1RORmkUZhnr/AGFmxOGcZY4lnB2OImomzS8NaI2wRce9kmKEsjYmEmo5cMpGQaSftiSrV+8bvknKsmgAVT8k+GHUG2zuq6bA0f1V7Nxs1dP+7nuxpWP4ra82QzpfhVTgoSa9jdJ2/QkrM+8VijZa2Kd6jG3hys6eJQ9s2YouFbWAAUgdJHZvKOX3f1F9B8m+R01yYf8AGLbWr6BUb3L0ir6+9uzla/cpOXdt6xWMOEY7xJZsw9sg6mZtUncUvZvcENlPF34oz6Xf5/8A1sPia1F8nXUXmAAAAAAAAzN8Ff0iXqo/uZqP9Dj8NMgzN8Ff0iXqo/uZqP8AQ4/DTIAAPny0tFwMXJTk5JR8LCQse8lpiYlnjaOi4mLjmyjyQkpKQeKItGEewaIrOnjx0sk2atklF11CJEMbHmNdbN1vuCoxmwNS7ApO0KHNHfJw9115aoK6VOVUjHzmLkko6xVt/JRD1SOk2buNfptnih2b9q5ZuSpuUFUyB7cAABRp6Rn5UW8f2z0l9WqmJ/8ATk8vTgf8GfF/6IUcQA9Iz8qLeP7Z6S+rVTE/+nJ5enA/4M+L/wBEKOAmYAAAAAAAAAAAAAzA9MCwQ73rp9YBi2fJqu3JcGQQ9msQ6pateIODnzF9omUvZjpV41ZqZznGFTrEUb5WR9amNPwy1dMauRkZ18Orc5alWwqjDzSpMnWyfHbtuxaJYpj14zjHrweSSIZvj/0EfWkX14z6xqVAAAAAAABx7du3z6WqjCzo6r3FuF1JWBrXWlR0lTULpa8OXcdKyRJF+1fTFfiIavoliTs3U/NzUbFNZF/FMl3RFZBD1xv4Cc2s85Khvy4/ZXNagxpXk1fOOKlVs0/BWGyKSOuqdrqXsEhOuas5kqw1fEs1vmYZNpXp6yRJmMOzftZ59342Ep4ijToUf+XnUX/+rLy7/wD0eoQF5YAAAAAAAAAAAAAA5duCd2tA0xZXS1EhL9sKSk4yEh2VrtCNSp1dTlHHsHt0uMkRF7NO65VW3bk3sDVIuTtFhUTbw0Wkww9Xm4qFXS95iXjlxoe0JbviIyq8ntBbUu+jORtPi2i0axib5UpdxhpJxcY5xhw1hZ2DVZKtO0dwliRZzDRF26wyMqYPac5ZSU2FFa64a0+Sex1r5aTErXbpKRLlZrJ0/jRTk42T5E25F2zfsX0Y5lq1KRGoa5KtTqKx902vWnuEVEmjjs835XcvZbjlvLhpwl0rW6pTrhyYTtkFQb3d6DbLnqWgwOrYWLTRrTSk0WzUOVsEoqg9YIkbIXWrw9QhW7d/MOzN5JiQnQuJKed27N3dzTkPW4hNhyBdI8ccqdoybXjlp6cmGSlvYYNhLBcbw224vGxEJArZFWZ1w21CRwo6ThmamJPbKnXMkm41hr/bev8AXO752HTsdPRtUVH3uTRgoqaYJT88nq8txpc5YoczPLyCUk2kywZxMhIt3a7hwdt4c7CCXDnnNsXafLPlnwW3xWqapufiynTrHnaGooqbg9W7CpF4ga3NRipqrZbbfJyi22PxZo1N3BOLta0HeDySab1k4gXSby0cZ8OmvYoTjt1EebfDPeTZG7cyNieD8h5TlakU7BDkdr1djGuImGLSsNkI7VSuum1rwzYUiuOJqFOVtZC+PyZa7HyEloPAAAAFfPVgdINOmrzgVcH9mmfjbs9qU3ZOf1rva66ZNSeohTGx7Vy4ST7WcYITt9tQxEymOWNvo+nlDcR/59/ec3QJK9VyOQlOmtzhbODqkTS41bUkS5RMQp8rw9Zey7YmcnIoXKSjlkkRcuC4OZAyhUzpKZKqSPPQGQSb9I7iGmkXJSGYbmXzjOcm/wAK65E7cdLG9ec5z6jLLKGxj/EXGcFLjBcYxgLiRADqr+Wzzi+GbbXynICf4gB1V/LZ5xfDNtr5TkAHs+nJ5enA/wCDPi/9EKOKu+t5aahxD4w8mLtrJvLO+THUhltYcZ0jGfqPZFaAiKm+q72LqrRJuRxFwjWkLWhplim79hm7bCzK9vDiSy3PaJ05PL04H/Bnxf8AohRxGjqR8Bdhcr9ocL9/arl9fyl34b7VkNgMdQ7jlLHA6s2Y1l5CmSpsStmq9bu8rW52vyVGinUU5TpNgaSaTpy0flaJoInVCQfT+0nTuIfGLSHDVrbKrIbJ05qSuT+wKzGy8UafbyewZyzzM/cHFdbvXEqzq9m2Olfmldm3SPcZZaElGrR45cxj4iHfNv8AInQfH1hHye9N06s08xmO9+DLbKvlYpeZrMeVE8hiGSsEmwXljR6bhBV+WOTcmZoqkXc4SSz2xyfi1xrmNOS25NubPskVd+RHJC2RFu29aK+0fsKjFsapDFrWvNZ69YS7h3Ls6FryuFUZxZ5ZyrKzMxJWCySBWq8z4eyry6L8pYeUVf5B9RDdLFhLbf3xvK6UqgO3kThNfVeg9V4ZVKravpZZFZ/I1aFJPo2iSssaxdNSWCfUPOzyT+eXeybsLnaLfaPs+pQl91rcqtsGjWVqZ9XbjSp+KtNWnWabhZoo6h5+EdvouSQSdt3DVVVo6WIm5brt1MlWRUIX1gzPdPXVtiu/Onm7oZGdOrxZ4hc/LLySrlHNLYcNojal7r1izS6bExZiKOGVIh7VM23Y6bJnIt4qJvFChVlYN1Izz5+z0wgKM+l3+f8A9bD4mtRfJ11F5goz6Xf5/wD1sPia1F8nXUXmAAAAAAAAzFcDJaOd+kV9U1Bu6IdZXTURhNLJVCKH8CdceoqWyUqhCZyRnIKpNjnxjsHMqmdEyiRynzp1GXPgZDtI/wBJB6oBkcrHOXRajgp1TlzkubBM8Y5l8njBCJkymV3kpW/rLlRNBMpDqKHydQ+owBHHkpO8bJnX9n0LyN2fruk1zf8AT7Rq9xXbfsqu6+nbfC3WEkq7MRtVUlZiLk3UmvHunxGisMVd23XTyqkXtoZ9X9fFzi7pnhxpOo6A0LWVKvrynlkFmyLyQdzM5MzM0/XlZ6x2ScfnUey85MyTpZwusoZJmwa4ZwkGxia7FREQwzT9ZegyGi+MW9IjZDSq7g5qdTflUx17qNaJbLWaS19x8oWwqvOay1TQpu1x0RKRUfERMJTCWiNi2TKINtTbM27ZlkUmjKyq6ftIa/mNV6G1Dqt1MmlJ/XGoqBr9xYJT20qeRmKhTYmuLTMjkrhkvJGePY4z152XbRZ5lRT1OEDqe0IHXQFUHTW5PcoOSGx+ccNvOe01bKPxz34nx8oNt0/rq0UCLsF2prB88212m1n2Tsd0rHQzqVqkbGJHlnTnOMOXqz05XibdK18BRZ6Ry6Qb9KbcySynYUfXvSrVqXsnN7Vcmz649Mn6ylMUnqbM3CvaUyQmfZ9jBsqHTIawfpyeXpwP+DPi/wDRCjivr0jiOQe9KXdLlUypVIi86UkW2EzEwQ66u0q1EmKvgxDmMlhtKOD4KmZI+FyImyfKZTpqWLdPtuk04FcImqBclRa8Q+NjdEuTZNkqSOmaWmmXJjZyY2cELjGTZznOfV685zkBLsAAAAV53XhlyDtNyttmhepPyzokPY7NPTsTSK5V+NDivU2Ml5V3IMKrArz2jpacXha81cJREWtMysnLKsWaB5GQevDLOVfM/gK8lf1qPMz/AGR4p/8AL8AsyAVm/gK8lf1qPMz/AGR4p/8AL8J/67rE1SqNVqnYr5ZtnzlfhmcZKbBubass7RbXjZPsKzE22psBV60i9cZ/IYsVBMEskKQy2HDrK7twHswAAGYfprefT1c/7DZ/NFIGngZh+mt59PVz/sNn80UgaeAABA3afEXe9/2BZrjV+ofym1RATr1J1Ga7ptZ42uqvVEE2bZsaNhHNj0fMT6zLKqCjkikxLSciY65+9P3a3aXU5/8AgK8lf1qPMz/ZHin/AMvwCzIBWsz4N8kmztq4W6pPMh2k3coLKtFqlxUwi6TSVKodurkvH7BsJrFLlM+S5wbBTZ9X5fUJ73mtS1q19cKdD2uTqk7ZKbYK1FXhgU/jNalpiEdxbG1siRjqDP4nDvHCUu2LHvYc/e2xMNHUfn2ayIef2/YNu1uoZkdJa0qO17waUYNU6teNoO9Q14sUt7Y0jKuriw15tF6kqyKmkVtHNqe8O/WXKU7lkkmouWqjpucb+dPDOZ3PTdnap462vXfJDlntbk7ZbzrrkVdXdl1Z9q0VXGitTa0a18d6uz2ASEd1aOKrLJXGonVZvJJ23YOnLRnGvvLS3TC5cQMXITc51sOXkLCxDJzJSsvLRtPjouMjmaJ3Dx/IP3lgRaMmTRBNRdy6cqpIIIkOoqoQhcmx4PWnBbdO6GUlJ6d6+/IDbEbDOSM5eQ1pPauvbKKeKHdJJtZJ3VrhKoMXKijJ4mRB0okqY7R0QpMmbq4IGg4BCPhrxa3HxnQ2IltzmRuHlypc1aqpAuttsWTJehkgCWEskhBlj5R82USshplgpIGy3bLlPCNMKLOk8okaTcAAAAAAAAAB86YZLyUTKR7V8tGOn8c9ZNpJv28rx67psqgi+Qwms3U9s0UUKun7NdA/bTL2Vkzeo5Q+iM6nKTRPIfUXUylGXGdnIQ+seq3p/wCy/ddoimKmY3UWwdTuY4923CU6LpFm0ta+gnlpbUvDgjZaYvcm+eYcLOEFV23afxVnM39c9zM/1DWP99h+Ks5m/rnuZn+oax/vsBdBUKlW6DU6vRadDtK9UKXXYSpVWAjynIwg63XI1tDwcOyIc6hyNIyMZtWTYpznOVFAmDHNnGc5r85AcHZu0cz9Qc/9OSNJcby1Rq6w6ezTdrvLyxoc5VZvNmO2loyapD9ZxWbPGFuNlYOlJel32GmY2TamLFQ0xBx8ueA9j4VbWp94jNY230gjeNW2TNFSPD69sdp1NCXiWIvhIyB4ypyd0azz8qxV0MpGasFcKYWSyTOcKE7XW/xVnM39c9zM/wBQ1j/fYDtXGHp52yoc0t19Q3kvfK5dORe0INvr6mVLWaEww1TqPWDKLrcUjERq9gRb2G22d43rbQj2ekWsOxJ3mXXQhcupbCsfawKPfxVnM39c9zM/1DWP99izXixpXYGgdTtNebL3/feS9obzs1LLbT2S3Sa2p8ylFUlGcO6QbSEgzI1hiJmbMss8tUjIZKZRrl3ly6dBI0AABAvqleW/zl+FvdPyLMiOHQN8pHiD/ZW3vvA7YEj+qV5b/OX4W90/IsyI4dA3ykeIP9lbe+8DtgBcGIAdVfy2ecXwzba+U5AT/EAOqv5bPOL4ZttfKcgA9n05PL04H/Bnxf8AohRxMwQz6cnl6cD/AIM+L/0Qo4mYACDSPT10BGy14Vq0ru/X9M2TaZi7XfUest+bY1tqiatNk7RrNKo1Sj2iCNAEtDhRd5ZomsSMLB2B05WUl4x4XJCJzlABB6kdOrijq7bbbcWqqHJ6sm/b0mQm6rrm4Win62uM5rat2apUKw3Wgwso1r9lma1CXCwJoryLZRvLST1OfsbWan2LCUbThAAFGfS7/P8A+th8TWovk66i8wUZ9Lv8/wD62HxNai+TrqLzAAAAAAAAZa+ADCcT9I56ojp8c+WyOl36SxVnJV1clk7LxueVvJM4Mrn2CcI1XImnhQvc0jItTpJmLhNLUoMzfBX9Il6qP7maj/Q4/DTIAzXc56ffFOtZxI3hvHWO3LBxU0Lpedsel5HVOq73txG3cgEErTLt6a6Z0Sv2FaBvT+cTr8lAtZzEHHSadNr5iSyZHDw6Fqemti720/xG3TyZ5lSCzS2lT3PyQd62XTgUUtGanhoJeZo2k03VcT7nJSdUpNYYq2iRO7mHj69TVlz4vKE7u5Un8ONcitLwvI3Qm5tB2OSeQsJuXWN21rIzcegg5kINC5V6QgsTbBs5zhs4fQ6j0kkzQcZwgs4apprZwmY2QGXvT1I2xw96JMhz1dcmdrUPeNlIXlNV63Dz8dG6nk7luDazB5W2dyoyEe6S2i+2jATdebWP3vdvkGMetGR0QwgSwUjJymqXUNvltg6n1ffZ+IxX52767pVvmoEvr7MJLWWtRkzJRBe0u6N6o149WZY7Tlxn1I/lXVz/AIQ1UTfp2bz3Tpji5xI5YWPTWeLnFxrrJOViNRvLNJWnk840jFtK/rRhsCJstFqsBqGhOY1s3kbpRanJbDfSclHt2cbd2Ee6yZhc4ggi2RRbNkUm7dukmg3boJkSRQRSJhNJFFJPBU0kkiFKRNMhSkIQuClxjGMYAUT+kgkfG6Vm2DNDKlQT2Lpc8nhNb2RDsc7CiE0yrk7ZO8pYklI8+Eeyr2VyIuOxj2HtE7FunWuq56ffBVyufKizjhxxjXWUzjGMnVV0nSFFD5wXGC4yY5smzjGMYx6/yYxj8gr79Iz8qLeP7Z6S+rVTE/8ApyeXpwP+DPi/9EKOAmYAAArzuvTM4+X25W28zV75Zs5i6Waetks0rnMjkvV681k7FKu5h+3ga1A7MYQddhUHTxVKLgoZiyiYhiVCPjmjZm3RRJ5n8VBxq/zh8zP78vKz/isLMgAVm/ioONX+cPmZ/fl5Wf8AFYT/ANd0SF1hRqtr2uvLNIQdQhmcFFvbnb7NfbQ5Zsk/ZpKzdvuUrN2Wdemx/wCJ3KyjpUpMEbo5RaooIJezAAAAAZh+mt59PVz/ALDZ/NFIGngZh+mt59PVz/sNn80UgaeAAAAAAAAV78+eN/IDkkpxZidOWjUsZSNc8maJtLfdO3HGyc7V9ia2q+HOTwqdYZ16djrdLQ711iyVuu2Jevw5bjF1eykskJL1qKkmtZ/L2qRWrOuJ00ZTi/ERVf2hsqobbjuUNYosC0iGkpoloVgnG23Y6MAw9nIIuDHt+ImRsSOSIztHqvsHrd01jlULaecnOTSHA7UX2l7juMBWnlidSNb1vFz6dvWaWm7IwkhLsIt6Wh1C+2uPhPWyTSmZ+PqMyjDEdtTOUO06QKenHih1BeCS++6WbQW+GHMDn5zI3RRaVuvYdh1HvSgNYDTjPE1Pztb1U2vdPr0FQdY6vrsRhrVaexmn8vZ5ksdZbyazyKCj+JDS6AAAAAAAAAAAAAD81sLGRVK3OmkvlM+EFFkjLoprZLnCZ1UCLNzrJkP2THSI4QMoXGSFWSznBy/oPxcuW7Nu4ePHCLVo1RVcunTlVNBu2boEMqu4cLqmIkiiikUyiqqhippkKY5zYLjOcBn2ecIZ3XfSd5n0zqSTehLlsR2x5FbNc7zp9bjV5hMq7Ve00C3TdrslWrtgsWyU76gvIwyzzvEwrHP6vSkZBdw1K2TmZ0XZ3cFk6YvEqX3ipLL3haiS7do7sB36k6+oMfdbNH6tfSh5EveVFHeuGtXWYuTKuMPok0dIZWyd0dNOrjkJ1ZOlfy/2S71zyO5RErvFLTt+KtnUMZrLfNlJytudXV9pG2rYNi17r2dr/wCD7W5YqT+n0FrMPJDZ86zJY70hC1iIhq7Zrz+DXIlnyt46V7e0BBxMBr+3XLa8XqRpDsJKKSeajoW0rfrzXU+6ipVFq7inlnrNUY2JSLNHxhYxGUQYYjmmW5k8BLsAAAAAAQL6pXlv85fhb3T8izIjh0DfKR4g/wBlbe+8DtgSP6pXlv8AOX4W90/IsyI4dA3ykeIP9lbe+8DtgBcGIAdVfy2ecXwzba+U5AT/ABADqr+Wzzi+GbbXynIAPZ9OTy9OB/wZ8X/ohRxMwQz6cnl6cD/gz4v/AEQo4mYAAK9eLPT9huNPJTlhyfd7u2xte68o7c8l1IO4Spm1Q13UTz8jZImnwkCzcqMpZWvvJRzFQk+/Sbnhqug1goKKiCurG7sVhQAAAAoz6Xf5/wD1sPia1F8nXUXmCjPpd/n/APWw+JrUXyddReYAAAAAAADM3wV/SJeqj+5mo/0OPw0yDM3wV/SJeqj+5mo/0OPw0yAAAAAAAAo09Iz8qLeP7Z6S+rVTE/8ApyeXpwP+DPi/9EKOIAekZ+VFvH9s9JfVqpif/Tk8vTgf8GfF/wCiFHATMAAAAAAAAAAAAAZW+ltH2r8fV1cX8mqY8e2aW9q7wdw3ObOJPbFNd0nGE0zGMYiNYYPEiZx+VoTJW7rBHB8FxqkGZnpleeR1h/4f+YowaZgAAAAAAAeIumstbbIIwT2Hr6j31OK734WndKnA2kkb3/u3fu4FnGD4rPvvcmfe+74T7z3Rt7bt+wS7Hn6tofR1GlWM7SdM6op83GZdZjZmra7qFflY7L5u5aPssZCJh2jtpl40eO2zrLdZPvDd05RW7aa6pTdXAAAAAAAAAAAAAAAB+Lls3eN3DN43RdNHSKrZ01cpJrt3Ldchkl27hBUp0lkVkjGTVSUKZNQhjEOXJc5xn9gAcKNxc4yncEdm466JM7TybKbo2o9fmcEychkz5Itmv5ULk5DGIbJTY7RDGLn14znGetVys1unwzOuVGvwlWr0d3jw+BrkUwhIZj3t2u/d9zi4xu1Yte9PnTl449ggT2ztwu4U7SyyhzfbAAAAAAAAFd/VrI+P0z+buI86pF8cd9hHUyit7A+WKcUc8mTJ+2n2klI0rtNdHtZ7ygZRv2Ffa+zPHz0fpZVfpEcRjqnyc5Ut6I4znGMepJvyW3I3RJ+TGMepNFJMmM+r15wXGTZybOc5kp1V/LZ5xfDNtr5TkBGb0fTyhuI/8+/vOboAXMCAHVX8tnnF8M22vlOQE/xADqr+Wzzi+GbbXynIAPZ9OTy9OB/wZ8X/AKIUccF5xUqd2LezPOQBHlY6cvHzRt03pupZnbWUIpvnZkfmRQhtaTbaBtUfcU6Dr2oxsrcJphItYmBu1osFUhCHsBY18nE966cnl6cD/gz4v/RCjitj0jvY94qPT2b6+p/ajGHIDeestPXm5O3KEdXqhUHx5i3LurLMrmKnCw8rM1GGh38i6M3jixruQbPXifeUWzsPy9HBW2bLdPyWtt5kp9SnW/kBs2T0hXJ+VmZ/NN1UwaVivta5CzlgdvJV5XmFth7W2jklllCJKIOnOFlFnq5U7pN07kpGg9dTezb+5fpwkSvERjKMhI9WYs1qtNml2Nbp9KqMG3yVxOW25WeUiq5XIpI6RXcrJNiuXLNmVw8QgRwcubYl2geOfGB7Tbfwc4ncc6ZqSY29AFbTsLsHkmkrCOlIPW91iJVaGsSFRpJHcruKTZq2Nqhf7lH1hZ1E2iv2psf3/J2JuW3eS+jtTa7nq7B2PVOq91cmmEhcoSQtVNh9qkZw+mOPsnaalGTVec2KOYyV82nbG7bxhiZrJUZo7ZnM/I3WaB529cwOQXH+68bvwktP6tgqByn39T+OVRi9Z7FsNw2XrO+bIirLNUhW+kk6hCVCyxiRK0vC3VzTpLDOvSjor6GkbTEoprvLLhQgxru92HUT4N606i2z9c7wm5GrciNp8TlNJ1V9qyq13deuYitHtzzZ1TkZqbk7g5idXTb1xq6bbyMPFw8grcEZat2F+eLnYG+8BRn0u/z/APrYfE1qL5OuovMFGfS7/P8A+th8TWovk66i8wAAAAAAAGZvgr+kS9VH9zNR/ocfhpkGZvgr+kS9VH9zNR/ocfhpkAcm3zYNr1TS21LLomkROydzQdDs8nq6hzsqlCQ1svLSKcq1uFk5Jd7GIoM3kmVuRdNWXhSOyetmachMOPFWfJOD8ty4neNdCmecVepNT5HSatjeXGs0IzM8PBxy9jlD1WOdHi5uxwxphvW8xpZLwebkmRVclIZ0q9K8Nmq/nP1LeSeuNRcm+UvHSR0pVuP/ABK2tCaSYIbRpE/fbLyv3Ezu9epuyoOnSde2NTWFD1rR3VifRidgZsrXZLFY6Pasp5g4dksdO6/RWwpPbekNN7Wmq8pUpjZuqtebClqoqrldWsyd0qMRY39eVWNjBllIV1JKxp1c4xlQzbJ84xnPqAdVAAAUaekZ+VFvH9s9JfVqpif/AE5PL04H/Bnxf+iFHEAPSM/Ki3j+2ekvq1UxP/pyeXpwP+DPi/8ARCjgJmAAAAAAAAAAAAAMzPTK88jrD/w/8xRg0zDM10yvPH6w/wDD3/5sUaNMoAAAAAAAA+exloqTVk0I2Tj5BeFkMxMyixetnasTK4ZMpHMZJpt1VDsJDEfJRz/LJ0VJzhk/ZOspewdIKKc53Fpyq7yqral3OY2PEwCU2ym3RdY7Y2VpualTMmz5sSJlLZqi0062OK8478Zd/BpziLB+5asFnaS2WaOC08dA6JZV/UXP6vxmHeIuv9U3lNAxZH0jIy7xKLharpmMjUHMrLun0rIqoMmqCJ3sk9dvnOSe1dOV1znUMF7oAAAAAAAAAAAAAAAAAOJcguSGjeKutZjb3IPZNe1fr2Eykm7nZ07xwu7drnwRvGQUFENJKxWeac5zkzaDrcTLTDhMiqqDFRNFU5OyMnrOSZtJGOdtn8e/bIPWL5kuk6ZvWbpIi7Z20coHUQcNnCChFkF0TnSWSORRM5iGxnIRF5d2+0OmGsePGtLNMVPaHJK7JVhCz1tyuwsNE1BT8tLVvnYkVJoEweGkYyjJYpFWm0l27uL2NsWiOGZ/b9kxIu7p1zw447OWLHdXNzlnr+RkYh5YWsVL85eSy8vmux63d31jcRMZeH8kyrrRxg6DieeNW8Qkqi4TO8wduvhPtPFFf7fNs7n5mvMZcVedcu+PnGgyhD4SJozWdidluN9j8mTamMnu7b7WYnEXCzU531Eo2sHTd2q3zjA4lteE0/0/+QfKLnjsraHIK8R/JTXlZjX2g69r607IqEa80/AwcF36JVrUG/h60V1GKNGzVe/ydYgI/wAdtrpecdMFVywgSw40ah1LDtozc+oN+bs3dUbzUlEK7M3LlBsvfOuJaEkn8e/JO11labfZK14omvElZt56PTxIs2y0vFlcJJPn6CkuRTX0MeOtr0DwrdzFsnatILchdw3zkNB1yhXiA2JRaFWLyjBxsFVK7aam7lKpJZQZ13EhLK1mamIUkk/Wbt3666Dk5rlAEAOqv5bPOL4ZttfKcgIzej6eUNxH/n395zdAkz1V/LZ5xfDNtr5TkBGb0fTyhuI/8+/vOboAXMCAHVX8tnnF8M22vlOQE/xzPc2o6XvvVV+0vsZo9kKDs2sydOuMdHyDiKeSNcmkctZeORk2eSPWHf2R1majxiq3ft0ljqsXTV2VFykEf+nJ5enA/wCDPi/9EKOJaz1fgbVDyFes8JEWOvyzfLSVg56NZzEPJtTGKYzaQjJBFwyetzGIU2UXKCieTFLnJfXjGcUl/wDRzOlF/mOuf/3t21//AFgueoNJr+tKLStcVNuszquv6lXKTWWjl0s+cNa/VIdnBQzdw9cmO4eLIRzBskq6XOdZwoUyqpjHObOQ+tA1+BqsPH16sQkRXK/Et8NIqDgY1nDw8Y1KYxito+Mj0W7Jk3KY5jYRbIJp4MY2cF9ec5zU5V9jb2Q5ucqd/wBB0TceRunjJU7iC1iNYTulq5fabP8AHONzsOSsqCu8ds6krc1U7RsTkLteiWBvC2LxqHnNUQrhzGTDSQSNAW9DlWmdP1fRtIPRqo7m5Nm6uWx7/LTVldMn1hnbbtbYVn2bc5mYfR8dFNXTl9aLbLKI5TYoYbscNGRcGI2KbIQp1Lxo3Bsbmevzt5KMIWjvahqJxpvjhoKFsiVyd6vhbFMupLYd72DaY1mzrchsa7ESjozEZU152vwFdJiNzY512km7RsrAVT8k+iz0+eWm6rpyC3hqqzWTaN/93Peeaj9o7DrjN77q1OCpML7GGgrCximfdq7W4lop3Vql3hVA7pftuV1lDhwvpd/n/wDWw+JrUXyddReYITcM+ntxc4CR1/iuMlMmqaw2a9rshbm8vc7RcO+vKshMNohZurZ5OTWY+yRnH5Fk2qiaS/aSMoTJ0sGzNkAAAAAAAGZvgr+kS9VH9zNR/ocfhpkGZvgr+kS9VH9zNR/ocfhpkAZgurVBMOXPPDgD0maMxRg9WrWKQ5Oci4SpNU4OLSqbZ3ZX+EFko8jONZv3ULE7JeHUMmss4sN7gpM6Z366WXOgfQO7tfbwr9ye6vjpZvT9ZbMu+k28q6ZRbOvz8xqqUzVLG8oqsZKSJZOoxs4yfV5lKKJR2HD2HfooNPYtiqqRi3x02dVbs5KRfLSH2vvvRG70dbq6fsNu0db6xXndq1uupILLwbha0Um4uq5KKKPUkkrdSnNbtLFqyb4jJVjIJN5Jv63kpq2xae6ee99S8PKetGWupcbtlVrTFVrBXi0746pUZkjZWCMlhzKTV+kHrp5LsHbgzqWst3dJu5Fy5kJJy5UDk20uqvpShVnb2yaZrHcm8tI6CcOI/bm/daH03C6bhZ1m+YxL6pVG67i3BqtjtO2MJqWiYp5Ga2LZWJZJ5mEbyzmz4b191ZLW7DD26uwNrrzzxCAs8LF2GDf93dNO/Q80xQkox53V8g2etu8snKC3d3jZu6R7fs3CCSpTplpV4J7d4Oak6TfFSi7LuWr7TVsaeq8datOzTGF2DcbNuheRTtOxdaxmk0G05arlf4TcMhMNU6hH1aRn28uybvlWTc6GXSV0tUlcTtWrc2WAmKoWYgIeVxV7CyaR0/W8SEc2d4gJyPYO37FhMQ+FvDpNkyfPWjV62XQbu3KKZFjhSn6Rn5UW8f2z0l9WqmJ/9OTy9OB/wZ8X/ohRxAD0jPyot4/tnpL6tVMT/wCnJ5enA/4M+L/0Qo4CZgAAAAAAAAAAAADMz0yvPI6w/wDD/wAxRg0zDMz0yvPI6w/8P/MUYNMwAAghtfnV9lOwrLr/APA4537J923LVt776o49e+GvZ/vUczke8Vqy+98d4q2bd87i6V7kh7GRavGvZN7Dtm55+Ms/0Aepl/dV/wDfgCzIBW1HdSDxGQYR/wCAX1JmPfnrVn36R4ud1j2felyId6fuffk/d2Tft+2dL9g/sUCKKdg3Z9WbAblZUqZULVcF4uZnEKpW5yyrQtdZlkbBMJQUY6lFIuCjzrNiPpmQI1y0jGZ3CBXT1ZBAyyWD5OUP8Wu7UyhxyMveLbWKZEuXqca3lLXPRVdjl5FZBy6RYIvZd2zbKvVWzN24TakVMudBq5WKnlNBUxaI+hXs3WydT5719TYNHJPW3qqcrZiqwh7ZAll7NEycHqjw2Ur8aZ/h7Mx0h3Vz3F9HIuWzvuy/sFVPYqdn+y99YDSW0oPFY2b0mOpzsatYet5LFevfBmpW+DxItCqkav8AETYNiSDDD1sRwuRu67v7dEqypU1C4UPg3Oar1H+G9FsEZbKT0ReedOtUKsdzDWaq9OLVlesES4URVbKOIyZiLgzkWCx266yB1WrlJQyKyqWTZIocuQ0egIUcNebMVzLY7AexnHLlZx6+z93W2q7TlFqZtqt9afeRGaWSc01u3s9l8aaRPgiiU0sc7TuSz+NIUq3eTZSmuAAAAAAAAArfmOo34PLysT+Af1IZTwuSfR3icPxf79ESPcXSrbv8U99+Eu9xrv2XeGLr2SfeGqiSvYJ2+zj5v4yz/QB6mX91X/34AsyAQP1Tzr+1TYNa1/8Agcc8Nb+8rpy199trcevc/X0B3aPeSHebLZPe+R8Kar907k2W7kv7WQdNG3ZL7btlkLyK3Y046aaum5nuudrbba0pGFVV15pGpp3naNj8bskNWiJVSqrScMnLLR6kySXlCGkmvdYOPk32Mqma4QUDxHLDiJpfmBqy6662rTK1LyNi1vfNd1m8P4JhI2rXyN7ThXL2UqUqul3+JcJz9Vp9gcIsnTZKSeVeJTfYXQQwnmkfhvyn3XtThI36d0vMPIXmxRt3zPT1utiYt1k5Wi6rp0XMvLTyCxmRQVQVUqugqxZYyoycguyQtu1GFQakdoPLWxKrJb8ePVf1anVs/ugx3/FIRN1/zy4t6z5X7s5mVTpXdW5lurfNJptFucl+CBXiRjWNqi515F7BNm2wmztnJXw7GnHvKrt+/Ql3Ov6q+bN498WZcS4aTKNSatrWlVHXdGhmldplErUJUKnAMCmKyhq5XI1tEQ0Y2wcx1Moso9o3bkMqdRU+E+2qodQxjZqd1F1Fr/WOXvNPTPOaS41caNS6lsKTnjfP2rYzKiXTZev8lUdIWXDK72RFK7xr2tqRMxJzNUi49nW7Q7laZkswuxyu08P+PHqv6tTq2f3QY7/ikPN2HrKamt2Y81r6VPVIs5ohxl3FZsPCWtTWYx3kyR8uo/Mlshzlk4yZBA2Vm3slMmRSzk3rTJkoeU9H4rO3mtB5j7FmI21V3jFuHk/bL7xKrdsjZGEULSZWbtT2dtNdg5Jx7aMqtkbP6e3Ykbx7Nk5l4KdeN15Ay6qxNCYo6L1xamUpSl6aXVrKUuMFKUvECNwUpcY9WClxjaOMYxjGMYxjGPVjH5MC5yjWpK9Umn3ZCGnq6hcatX7UjX7UwLFWeCSsMS0l04axxZF3RI2ejCPMMphgRy5KzkEHDcq62E8KGCFPVX8tnnF8M22vlOQEZvR9PKG4j/z7+85ugSZ6q/ls84vhm218pyAjN6Pp5Q3Ef+ff3nN0ALmAAAAAAAAAAAAAAAAAAAAAAAGdTkh0MN2bZ5kb05g6N6lm0+J9h3ktDEl4XVGuLbGTLSGia7V4XMBI3mocitevrHGOX1XaTWWrmGZNUnWW+MtVVmSbtT3PGjpGc2dH751ftrYXWW5Tb7pVEs7edsenbk020Sr7BjkW7lE9fmzzfKW5RJWSyiya58vqvNIdtAnrZHN2TkvyAAAAAeWj6LSYidkLRFU6qxlmljqqStij69EMp2TUXNkyykhLtmaUg8OsYxjKmcuFDKGznJ85znORXt1FeDfIXmf9j32Dc+tzcHfs2+0H3q+yNC7rfaf74+5HgfvD7m7m1H2fcr3WmPCfEveD1+9sl3Pwn1OvErMgAZYtjejz8wNxVN9QtudbDkntOjSizFzJ0zY1F2fd6nIuIx2jIRrh9XbNy8k4d2tHv26D1iq4ZqKNHaCLlAyayZDl0b8cdR/g/wDHrQ+hveH3t+xLTOr9R+9XhPgPvN9m1Ig6b7w+B+JTXgvjXgviXhPjEt4d3nufiT/2PelezAAAAAAAAAAAAAAAMzPTK88jrD/w/wDMUYNMwzM9MrzyOsP/AA/8xRg0zAAAAAAAAgHz15nteJMXoautH9Trtz5NbrhtFUm97DirLYNda6l5uKkn6dvuFapq7Gz2pom+axcBHVuOm6izfSs+0dWC8U6uR8rONovPOb/J7i9z90Nw45Zpad2hrflu0s2NF7z1PT7ZqaardqreHCjmnbBpFnu+yIeZMuuvXYlpIVq0Ml0lbDGP3TNbC6jFvbpa4qlOmbaevEbVnMfSHWbizmbWziVmdQewrddwa1NpGXTMhAOolp3lfM4ks0VYN/bqZdJJe0MKZ0tdG5s87NIc6dqP4egcPuL/AHqocKG1yfe7Vh5Fbn2y5hYxxuBjHS8i2LH0OXkWMDD6ajF2bW1bOfQkFamMaauv4XEqF4IAAAAAAAAAAAAAAAACOfLnkZA8SONe4uR9lhXNjitTU53Y819q88NPNySjlrFQcUtKYZSikSxfzkjHNZKWbxE27io5V1IM4ObdNkYp5IwfJnYGCtMPJV2zQsTYq/MtFWEvBTsczl4eVYrl7K7KSjJBFwyfNFi/9VVs6QVRUL+Q5DY/IAoV5K9Q7mFxF4/6H55zM9xk5O8R9sv9cObpWtW6t23qu91Cn7XbOZ2q2mgWu8bCsPvEzZwp46IfobEoFCnXlldM0ndaqZpN5GVq+iuzsdaa/BWaIUMtE2OGjJ2LWOXBTqx0uyQkGShilMcpTHbOEjGLg5sYznOMGNjHrzTBz011jqEyMNwkoi8FUeG+krdCW7nDvBCQQr9VraOrsNJiD4va5doqNIl1dk2uUbLsiRbkVrGloKJhk7HIx1sdRVVkrna3mAzXYHNUWjXFXzCxea2vDOEHcOtAZYoeDrRTtqos2dRqkd3Y7Fw3VVQWamSURUOmYpsh9oAABADqr+Wzzi+GbbXynICM3o+nlDcR/wCff3nN0CTPVX8tnnF8M22vlOQEZvR9PKG4j/z7+85ugBcwAAAAAAAAAAAAAAAAAAAAAAAAAAAAAAAAAAAAAAAAAAAAAAAAADODvDoQ71vfLLkByp0X1PNs8V5bf9nUnZ2A1Nri4Qki3jvZtO7V+Wt9P5IUJzaGTRy1y8Qy8h2SBF1MnTZJqF9obsHFHpNc0OPvIPWu4tmdYbk/yOo1Ik5R9YNKXprtZOp31u/rsxDNo+ZPP8n71DlRj38k0m0O+1OZT73Ft8JooLZTdt73gAAAAAAABAfqF8Rtw80tPRundXcoDcZ4V5Pd+2Qv9jcFuRtsqtotTFaUmYh563VNo2rxpHKcjLtDqSLSfTboxkmyUj8uEXEMNS9K7mHD7v0jsnkn1Utlco9d6X2Qy2o203YtGtKbFT9vg6/YomrSC1gabjsXczwEjPYmEiuICWRXO0wiRFq6O2kmN44AAAAAAAAAAAAAAAAAADku9qbsvYeor3SdO7azonZVlhcxdV26Wkx2xVqK8WdtsuphrTZaWg42Ze5jSvWbEruUbJsXjpCTxhc7IrZbrQAM4ivRc5+H15NamQ60ew4vWtghLNXJakwPFGv12vuYa5YksWpkmwgt8RybPE8pMyrmSXZd3dOXsi8fGX74uoubRRCQ7CvQ0RARSOG0XBxjCHjW+PV6kGEY1SZM0cerGMepJugmTHqxjHqL+TGP8Q+mAAINdQDipuTl/puta00fy72bwutkHs2GvMhtLVSVpWsM9XoyrXOAd0F4Wo7M1VJYhZSSs0TYnBl7C8Y4fVWOwrDOHGWz6OnKADL3a+gVzhvlanKZeOudysuVPs8Y7hLLVLXWdu2KtWGGkETN38ROQUvzDeRctGPUDnRdsH7Vw1comMmskchslzdx0+uI34CXELUfFT7QftT+yz39/wC/nup7j+O+/Gzrpsf/ACX95bf4X4X73+Df5RSPffDvEf8Asne+4tpmAAAAAAAAAAAAAAAAAAAAAAAAAAAAAAAAAAAAAAAAAAAAAAAAAAAAAAAAAAAAAAAAAAAAAAAAAAAAAAAAAAAAAAAAAAAAAAAAAAAAAAAAAAAAAAAAAAAP/9k=;" vertex="1" parent="1">
          <mxGeometry x="480" y="20" width="153" height="81.16" as="geometry" />
        </mxCell>
      </root>
    </mxGraphModel>
  </diagram>
  <diagram id="UukGHzSQUZkF2vn_z2VT" name="clark 变化">
    <mxGraphModel grid="1" page="1" gridSize="10" guides="1" tooltips="1" connect="1" arrows="1" fold="1" pageScale="1" pageWidth="1169" pageHeight="827" math="0" shadow="1">
      <root>
        <mxCell id="0" />
        <mxCell id="1" parent="0" />
        <mxCell id="Q7S7jCc66dG7YDmBWEx8-35" value="" style="endArrow=block;html=1;rounded=0;strokeWidth=2;endFill=1;startArrow=none;startFill=0;fillColor=#f8cecc;strokeColor=#b85450;" edge="1" parent="1">
          <mxGeometry width="50" height="50" relative="1" as="geometry">
            <mxPoint x="559.5" y="568" as="sourcePoint" />
            <mxPoint x="709.5" y="568" as="targetPoint" />
          </mxGeometry>
        </mxCell>
        <mxCell id="Q7S7jCc66dG7YDmBWEx8-17" value="" style="endArrow=block;html=1;rounded=0;strokeWidth=2;endFill=1;startArrow=none;startFill=0;" edge="1" parent="1">
          <mxGeometry width="50" height="50" relative="1" as="geometry">
            <mxPoint x="476" y="250" as="sourcePoint" />
            <mxPoint x="426" y="340" as="targetPoint" />
          </mxGeometry>
        </mxCell>
        <mxCell id="Q7S7jCc66dG7YDmBWEx8-16" value="" style="endArrow=block;html=1;rounded=0;strokeWidth=2;endFill=1;startArrow=none;startFill=0;" edge="1" parent="1">
          <mxGeometry width="50" height="50" relative="1" as="geometry">
            <mxPoint x="481" y="242" as="sourcePoint" />
            <mxPoint x="631" y="242" as="targetPoint" />
          </mxGeometry>
        </mxCell>
        <mxCell id="Q7S7jCc66dG7YDmBWEx8-13" value="" style="endArrow=block;html=1;rounded=0;strokeWidth=2;startArrow=none;startFill=0;endFill=1;" edge="1" parent="1">
          <mxGeometry width="50" height="50" relative="1" as="geometry">
            <mxPoint x="476" y="233" as="sourcePoint" />
            <mxPoint x="403" y="93" as="targetPoint" />
          </mxGeometry>
        </mxCell>
        <mxCell id="DkCm-MTQuog_AWC0i_iV-1" value="" style="group;rotation=90;" vertex="1" connectable="0" parent="1">
          <mxGeometry x="80" y="150" width="215.92304845413264" height="195" as="geometry" />
        </mxCell>
        <mxCell id="DkCm-MTQuog_AWC0i_iV-2" value="" style="group;rotation=90;" vertex="1" connectable="0" parent="DkCm-MTQuog_AWC0i_iV-1">
          <mxGeometry width="215.92304845413264" height="195" as="geometry" />
        </mxCell>
        <mxCell id="DkCm-MTQuog_AWC0i_iV-3" value="" style="pointerEvents=1;verticalLabelPosition=bottom;shadow=0;dashed=0;align=center;html=1;verticalAlign=top;shape=mxgraph.electrical.inductors.inductor_5;rotation=60;fillColor=#ffe6cc;strokeColor=#d79b00;" vertex="1" parent="DkCm-MTQuog_AWC0i_iV-2">
          <mxGeometry x="-5" y="36" width="120" height="14" as="geometry" />
        </mxCell>
        <mxCell id="DkCm-MTQuog_AWC0i_iV-4" value="" style="pointerEvents=1;verticalLabelPosition=bottom;shadow=0;dashed=0;align=center;html=1;verticalAlign=top;shape=mxgraph.electrical.inductors.inductor_5;rotation=0;fillColor=#ffe6cc;strokeColor=#d79b00;" vertex="1" parent="DkCm-MTQuog_AWC0i_iV-2">
          <mxGeometry x="83" y="86" width="120" height="14" as="geometry" />
        </mxCell>
        <mxCell id="DkCm-MTQuog_AWC0i_iV-5" value="" style="pointerEvents=1;verticalLabelPosition=bottom;shadow=0;dashed=0;align=center;html=1;verticalAlign=top;shape=mxgraph.electrical.inductors.inductor_5;rotation=120;fillColor=#ffe6cc;strokeColor=#d79b00;" vertex="1" parent="DkCm-MTQuog_AWC0i_iV-2">
          <mxGeometry x="-5" y="141" width="120" height="14" as="geometry" />
        </mxCell>
        <mxCell id="DkCm-MTQuog_AWC0i_iV-6" value="A" style="text;html=1;align=center;verticalAlign=middle;resizable=0;points=[];autosize=1;strokeColor=none;fillColor=none;rotation=90;" vertex="1" parent="DkCm-MTQuog_AWC0i_iV-2">
          <mxGeometry x="173" y="97" width="30" height="30" as="geometry" />
        </mxCell>
        <mxCell id="DkCm-MTQuog_AWC0i_iV-7" value="C" style="text;html=1;align=center;verticalAlign=middle;resizable=0;points=[];autosize=1;strokeColor=none;fillColor=none;rotation=90;" vertex="1" parent="DkCm-MTQuog_AWC0i_iV-2">
          <mxGeometry x="15" y="169" width="27" height="26" as="geometry" />
        </mxCell>
        <mxCell id="DkCm-MTQuog_AWC0i_iV-8" value="B" style="text;html=1;align=center;verticalAlign=middle;resizable=0;points=[];autosize=1;strokeColor=none;fillColor=none;rotation=90;" vertex="1" parent="DkCm-MTQuog_AWC0i_iV-2">
          <mxGeometry x="15" y="-1" width="26" height="26" as="geometry" />
        </mxCell>
        <mxCell id="Q7S7jCc66dG7YDmBWEx8-1" value="" style="endArrow=block;html=1;rounded=0;strokeWidth=2;endFill=1;startArrow=none;startFill=0;fillColor=#dae8fc;strokeColor=#6c8ebf;" edge="1" parent="1">
          <mxGeometry width="50" height="50" relative="1" as="geometry">
            <mxPoint x="480" y="242" as="sourcePoint" />
            <mxPoint x="600" y="242" as="targetPoint" />
          </mxGeometry>
        </mxCell>
        <mxCell id="Q7S7jCc66dG7YDmBWEx8-2" value="" style="endArrow=block;html=1;rounded=0;strokeWidth=2;endFill=1;startArrow=none;startFill=0;fillColor=#dae8fc;strokeColor=#6c8ebf;" edge="1" parent="1">
          <mxGeometry width="50" height="50" relative="1" as="geometry">
            <mxPoint x="480" y="242" as="sourcePoint" />
            <mxPoint x="460" y="280" as="targetPoint" />
          </mxGeometry>
        </mxCell>
        <mxCell id="Q7S7jCc66dG7YDmBWEx8-3" value="" style="endArrow=block;html=1;rounded=0;strokeWidth=2;startArrow=none;startFill=0;endFill=1;fillColor=#dae8fc;strokeColor=#6c8ebf;" edge="1" parent="1">
          <mxGeometry width="50" height="50" relative="1" as="geometry">
            <mxPoint x="480" y="242" as="sourcePoint" />
            <mxPoint x="440" y="162" as="targetPoint" />
          </mxGeometry>
        </mxCell>
        <mxCell id="Q7S7jCc66dG7YDmBWEx8-4" value="A" style="text;html=1;align=center;verticalAlign=middle;resizable=0;points=[];autosize=1;strokeColor=none;fillColor=none;rotation=90;" vertex="1" parent="1">
          <mxGeometry x="640" y="220" width="30" height="30" as="geometry" />
        </mxCell>
        <mxCell id="Q7S7jCc66dG7YDmBWEx8-5" value="C" style="text;html=1;align=center;verticalAlign=middle;resizable=0;points=[];autosize=1;strokeColor=none;fillColor=none;rotation=90;" vertex="1" parent="1">
          <mxGeometry x="438" y="314" width="27" height="26" as="geometry" />
        </mxCell>
        <mxCell id="Q7S7jCc66dG7YDmBWEx8-10" value="B" style="text;html=1;align=center;verticalAlign=middle;resizable=0;points=[];autosize=1;strokeColor=none;fillColor=none;rotation=90;" vertex="1" parent="1">
          <mxGeometry x="412" y="82" width="26" height="26" as="geometry" />
        </mxCell>
        <mxCell id="Q7S7jCc66dG7YDmBWEx8-19" value="ib" style="text;html=1;align=center;verticalAlign=middle;resizable=0;points=[];autosize=1;strokeColor=none;fillColor=none;" vertex="1" parent="1">
          <mxGeometry x="456" y="161" width="27" height="26" as="geometry" />
        </mxCell>
        <mxCell id="Q7S7jCc66dG7YDmBWEx8-20" value="ia" style="text;html=1;align=center;verticalAlign=middle;resizable=0;points=[];autosize=1;strokeColor=none;fillColor=none;" vertex="1" parent="1">
          <mxGeometry x="546" y="220" width="27" height="26" as="geometry" />
        </mxCell>
        <mxCell id="Q7S7jCc66dG7YDmBWEx8-21" value="ic" style="text;html=1;align=center;verticalAlign=middle;resizable=0;points=[];autosize=1;strokeColor=none;fillColor=none;" vertex="1" parent="1">
          <mxGeometry x="469" y="256" width="27" height="26" as="geometry" />
        </mxCell>
        <mxCell id="Q7S7jCc66dG7YDmBWEx8-22" value="" style="shape=flexArrow;endArrow=classic;html=1;rounded=0;" edge="1" parent="1">
          <mxGeometry width="50" height="50" relative="1" as="geometry">
            <mxPoint x="338" y="246" as="sourcePoint" />
            <mxPoint x="414" y="244" as="targetPoint" />
          </mxGeometry>
        </mxCell>
        <mxCell id="Q7S7jCc66dG7YDmBWEx8-23" value="" style="endArrow=block;html=1;rounded=0;strokeWidth=2;endFill=1;startArrow=none;startFill=0;" edge="1" parent="1">
          <mxGeometry width="50" height="50" relative="1" as="geometry">
            <mxPoint x="512.5" y="576" as="sourcePoint" />
            <mxPoint x="462.5" y="666" as="targetPoint" />
          </mxGeometry>
        </mxCell>
        <mxCell id="Q7S7jCc66dG7YDmBWEx8-24" value="" style="endArrow=block;html=1;rounded=0;strokeWidth=2;endFill=1;startArrow=none;startFill=0;" edge="1" parent="1">
          <mxGeometry width="50" height="50" relative="1" as="geometry">
            <mxPoint x="517.5" y="568" as="sourcePoint" />
            <mxPoint x="667.5" y="568" as="targetPoint" />
          </mxGeometry>
        </mxCell>
        <mxCell id="Q7S7jCc66dG7YDmBWEx8-25" value="" style="endArrow=block;html=1;rounded=0;strokeWidth=2;startArrow=none;startFill=0;endFill=1;" edge="1" parent="1">
          <mxGeometry width="50" height="50" relative="1" as="geometry">
            <mxPoint x="512.5" y="559" as="sourcePoint" />
            <mxPoint x="439.5" y="419" as="targetPoint" />
          </mxGeometry>
        </mxCell>
        <mxCell id="Q7S7jCc66dG7YDmBWEx8-26" value="" style="endArrow=block;html=1;rounded=0;strokeWidth=2;endFill=1;startArrow=none;startFill=0;fillColor=#dae8fc;strokeColor=#6c8ebf;" edge="1" parent="1">
          <mxGeometry width="50" height="50" relative="1" as="geometry">
            <mxPoint x="516.5" y="568" as="sourcePoint" />
            <mxPoint x="636.5" y="568" as="targetPoint" />
          </mxGeometry>
        </mxCell>
        <mxCell id="Q7S7jCc66dG7YDmBWEx8-27" value="" style="endArrow=block;html=1;rounded=0;strokeWidth=2;endFill=1;startArrow=none;startFill=0;fillColor=#dae8fc;strokeColor=#6c8ebf;" edge="1" parent="1">
          <mxGeometry width="50" height="50" relative="1" as="geometry">
            <mxPoint x="516.5" y="568" as="sourcePoint" />
            <mxPoint x="496.5" y="606" as="targetPoint" />
          </mxGeometry>
        </mxCell>
        <mxCell id="Q7S7jCc66dG7YDmBWEx8-28" value="" style="endArrow=block;html=1;rounded=0;strokeWidth=2;startArrow=none;startFill=0;endFill=1;fillColor=#dae8fc;strokeColor=#6c8ebf;" edge="1" parent="1">
          <mxGeometry width="50" height="50" relative="1" as="geometry">
            <mxPoint x="516.5" y="568" as="sourcePoint" />
            <mxPoint x="476.5" y="488" as="targetPoint" />
          </mxGeometry>
        </mxCell>
        <mxCell id="Q7S7jCc66dG7YDmBWEx8-29" value="A" style="text;html=1;align=center;verticalAlign=middle;resizable=0;points=[];autosize=1;strokeColor=none;fillColor=none;rotation=90;" vertex="1" parent="1">
          <mxGeometry x="625.4200000000001" y="572" width="30" height="30" as="geometry" />
        </mxCell>
        <mxCell id="Q7S7jCc66dG7YDmBWEx8-30" value="C" style="text;html=1;align=center;verticalAlign=middle;resizable=0;points=[];autosize=1;strokeColor=none;fillColor=none;rotation=90;" vertex="1" parent="1">
          <mxGeometry x="474.5" y="640" width="27" height="26" as="geometry" />
        </mxCell>
        <mxCell id="Q7S7jCc66dG7YDmBWEx8-31" value="B" style="text;html=1;align=center;verticalAlign=middle;resizable=0;points=[];autosize=1;strokeColor=none;fillColor=none;rotation=90;" vertex="1" parent="1">
          <mxGeometry x="448.5" y="408" width="26" height="26" as="geometry" />
        </mxCell>
        <mxCell id="Q7S7jCc66dG7YDmBWEx8-32" value="ib" style="text;html=1;align=center;verticalAlign=middle;resizable=0;points=[];autosize=1;strokeColor=none;fillColor=none;" vertex="1" parent="1">
          <mxGeometry x="429" y="460" width="27" height="26" as="geometry" />
        </mxCell>
        <mxCell id="Q7S7jCc66dG7YDmBWEx8-33" value="ia" style="text;html=1;align=center;verticalAlign=middle;resizable=0;points=[];autosize=1;strokeColor=none;fillColor=none;" vertex="1" parent="1">
          <mxGeometry x="582.5" y="546" width="27" height="26" as="geometry" />
        </mxCell>
        <mxCell id="Q7S7jCc66dG7YDmBWEx8-34" value="ic" style="text;html=1;align=center;verticalAlign=middle;resizable=0;points=[];autosize=1;strokeColor=none;fillColor=none;" vertex="1" parent="1">
          <mxGeometry x="445.5" y="576" width="27" height="26" as="geometry" />
        </mxCell>
        <mxCell id="Q7S7jCc66dG7YDmBWEx8-36" value="I_alpha" style="text;html=1;align=center;verticalAlign=middle;resizable=0;points=[];autosize=1;strokeColor=none;fillColor=none;" vertex="1" parent="1">
          <mxGeometry x="699.5" y="546" width="60" height="30" as="geometry" />
        </mxCell>
        <mxCell id="Q7S7jCc66dG7YDmBWEx8-37" value="" style="endArrow=block;html=1;rounded=0;strokeWidth=2;endFill=1;startArrow=none;startFill=0;fillColor=#f8cecc;strokeColor=#b85450;entryX=-0.067;entryY=0.083;entryDx=0;entryDy=0;entryPerimeter=0;" edge="1" parent="1" target="Q7S7jCc66dG7YDmBWEx8-38">
          <mxGeometry width="50" height="50" relative="1" as="geometry">
            <mxPoint x="518.5" y="566" as="sourcePoint" />
            <mxPoint x="519.5" y="376" as="targetPoint" />
          </mxGeometry>
        </mxCell>
        <mxCell id="Q7S7jCc66dG7YDmBWEx8-38" value="I_beta" style="text;html=1;align=center;verticalAlign=middle;resizable=0;points=[];autosize=1;strokeColor=none;fillColor=none;" vertex="1" parent="1">
          <mxGeometry x="522.5" y="400" width="60" height="30" as="geometry" />
        </mxCell>
        <mxCell id="Q7S7jCc66dG7YDmBWEx8-40" value="" style="endArrow=none;dashed=1;html=1;rounded=0;" edge="1" parent="1">
          <mxGeometry width="50" height="50" relative="1" as="geometry">
            <mxPoint x="476.5" y="496" as="sourcePoint" />
            <mxPoint x="519.5" y="496" as="targetPoint" />
          </mxGeometry>
        </mxCell>
        <mxCell id="Q7S7jCc66dG7YDmBWEx8-41" value="" style="endArrow=none;dashed=1;html=1;rounded=0;" edge="1" parent="1">
          <mxGeometry width="50" height="50" relative="1" as="geometry">
            <mxPoint x="502.5" y="602" as="sourcePoint" />
            <mxPoint x="519.5" y="602" as="targetPoint" />
          </mxGeometry>
        </mxCell>
        <mxCell id="Q7S7jCc66dG7YDmBWEx8-42" value="" style="endArrow=none;dashed=1;html=1;rounded=0;" edge="1" parent="1">
          <mxGeometry width="50" height="50" relative="1" as="geometry">
            <mxPoint x="519.5" y="558" as="sourcePoint" />
            <mxPoint x="519.5" y="606" as="targetPoint" />
          </mxGeometry>
        </mxCell>
        <mxCell id="Q7S7jCc66dG7YDmBWEx8-44" value="" style="endArrow=none;html=1;rounded=0;edgeStyle=orthogonalEdgeStyle;curved=1;endFill=0;" edge="1" parent="1">
          <mxGeometry width="50" height="50" relative="1" as="geometry">
            <mxPoint x="519.5" y="539" as="sourcePoint" />
            <mxPoint x="506" y="546" as="targetPoint" />
          </mxGeometry>
        </mxCell>
        <mxCell id="Q7S7jCc66dG7YDmBWEx8-45" value="30°" style="text;html=1;align=center;verticalAlign=middle;resizable=0;points=[];autosize=1;strokeColor=none;fillColor=none;" vertex="1" parent="1">
          <mxGeometry x="482.5" y="500" width="40" height="30" as="geometry" />
        </mxCell>
        <mxCell id="Q7S7jCc66dG7YDmBWEx8-47" value="i_beta" style="text;html=1;align=center;verticalAlign=middle;resizable=0;points=[];autosize=1;strokeColor=none;fillColor=none;" vertex="1" parent="1">
          <mxGeometry x="509.5" y="474" width="60" height="30" as="geometry" />
        </mxCell>
        <mxCell id="Q7S7jCc66dG7YDmBWEx8-48" value="i_alpha" style="text;html=1;align=center;verticalAlign=middle;resizable=0;points=[];autosize=1;strokeColor=none;fillColor=none;" vertex="1" parent="1">
          <mxGeometry x="529.5" y="564" width="60" height="30" as="geometry" />
        </mxCell>
        <mxCell id="Q7S7jCc66dG7YDmBWEx8-49" value="" style="endArrow=block;html=1;rounded=0;strokeWidth=2;endFill=1;startArrow=none;startFill=0;" edge="1" parent="1">
          <mxGeometry width="50" height="50" relative="1" as="geometry">
            <mxPoint x="151" y="557" as="sourcePoint" />
            <mxPoint x="101" y="647" as="targetPoint" />
          </mxGeometry>
        </mxCell>
        <mxCell id="Q7S7jCc66dG7YDmBWEx8-50" value="" style="endArrow=block;html=1;rounded=0;strokeWidth=2;endFill=1;startArrow=none;startFill=0;" edge="1" parent="1">
          <mxGeometry width="50" height="50" relative="1" as="geometry">
            <mxPoint x="156" y="549" as="sourcePoint" />
            <mxPoint x="306" y="549" as="targetPoint" />
          </mxGeometry>
        </mxCell>
        <mxCell id="Q7S7jCc66dG7YDmBWEx8-51" value="" style="endArrow=block;html=1;rounded=0;strokeWidth=2;startArrow=none;startFill=0;endFill=1;" edge="1" parent="1">
          <mxGeometry width="50" height="50" relative="1" as="geometry">
            <mxPoint x="151" y="540" as="sourcePoint" />
            <mxPoint x="78" y="400" as="targetPoint" />
          </mxGeometry>
        </mxCell>
        <mxCell id="Q7S7jCc66dG7YDmBWEx8-52" value="" style="endArrow=block;html=1;rounded=0;strokeWidth=2;endFill=1;startArrow=none;startFill=0;fillColor=#dae8fc;strokeColor=#6c8ebf;" edge="1" parent="1">
          <mxGeometry width="50" height="50" relative="1" as="geometry">
            <mxPoint x="155" y="549" as="sourcePoint" />
            <mxPoint x="275" y="549" as="targetPoint" />
          </mxGeometry>
        </mxCell>
        <mxCell id="Q7S7jCc66dG7YDmBWEx8-53" value="" style="endArrow=block;html=1;rounded=0;strokeWidth=2;endFill=1;startArrow=none;startFill=0;fillColor=#dae8fc;strokeColor=#6c8ebf;" edge="1" parent="1">
          <mxGeometry width="50" height="50" relative="1" as="geometry">
            <mxPoint x="155" y="549" as="sourcePoint" />
            <mxPoint x="135" y="587" as="targetPoint" />
          </mxGeometry>
        </mxCell>
        <mxCell id="Q7S7jCc66dG7YDmBWEx8-54" value="" style="endArrow=block;html=1;rounded=0;strokeWidth=2;startArrow=none;startFill=0;endFill=1;fillColor=#dae8fc;strokeColor=#6c8ebf;" edge="1" parent="1">
          <mxGeometry width="50" height="50" relative="1" as="geometry">
            <mxPoint x="155" y="549" as="sourcePoint" />
            <mxPoint x="115" y="469" as="targetPoint" />
          </mxGeometry>
        </mxCell>
        <mxCell id="Q7S7jCc66dG7YDmBWEx8-55" value="A" style="text;html=1;align=center;verticalAlign=middle;resizable=0;points=[];autosize=1;strokeColor=none;fillColor=none;rotation=90;" vertex="1" parent="1">
          <mxGeometry x="315" y="527" width="30" height="30" as="geometry" />
        </mxCell>
        <mxCell id="Q7S7jCc66dG7YDmBWEx8-56" value="C" style="text;html=1;align=center;verticalAlign=middle;resizable=0;points=[];autosize=1;strokeColor=none;fillColor=none;rotation=90;" vertex="1" parent="1">
          <mxGeometry x="113" y="621" width="27" height="26" as="geometry" />
        </mxCell>
        <mxCell id="Q7S7jCc66dG7YDmBWEx8-57" value="B" style="text;html=1;align=center;verticalAlign=middle;resizable=0;points=[];autosize=1;strokeColor=none;fillColor=none;rotation=90;" vertex="1" parent="1">
          <mxGeometry x="87" y="389" width="26" height="26" as="geometry" />
        </mxCell>
        <mxCell id="Q7S7jCc66dG7YDmBWEx8-58" value="ic" style="text;html=1;align=center;verticalAlign=middle;resizable=0;points=[];autosize=1;strokeColor=none;fillColor=none;" vertex="1" parent="1">
          <mxGeometry x="131" y="468" width="27" height="26" as="geometry" />
        </mxCell>
        <mxCell id="Q7S7jCc66dG7YDmBWEx8-59" value="ia" style="text;html=1;align=center;verticalAlign=middle;resizable=0;points=[];autosize=1;strokeColor=none;fillColor=none;" vertex="1" parent="1">
          <mxGeometry x="221" y="527" width="27" height="26" as="geometry" />
        </mxCell>
        <mxCell id="Q7S7jCc66dG7YDmBWEx8-60" value="ic" style="text;html=1;align=center;verticalAlign=middle;resizable=0;points=[];autosize=1;strokeColor=none;fillColor=none;" vertex="1" parent="1">
          <mxGeometry x="144" y="563" width="27" height="26" as="geometry" />
        </mxCell>
        <mxCell id="Q7S7jCc66dG7YDmBWEx8-61" value="" style="shape=flexArrow;endArrow=classic;html=1;rounded=0;" edge="1" parent="1">
          <mxGeometry width="50" height="50" relative="1" as="geometry">
            <mxPoint x="280" y="508" as="sourcePoint" />
            <mxPoint x="356" y="506" as="targetPoint" />
          </mxGeometry>
        </mxCell>
        <mxCell id="Q7S7jCc66dG7YDmBWEx8-69" value="" style="endArrow=none;html=1;rounded=0;edgeStyle=orthogonalEdgeStyle;curved=1;endFill=0;startArrow=classic;startFill=1;dashed=1;" edge="1" parent="1">
          <mxGeometry width="50" height="50" relative="1" as="geometry">
            <mxPoint x="480" y="77.5" as="sourcePoint" />
            <mxPoint x="615" y="192" as="targetPoint" />
          </mxGeometry>
        </mxCell>
      </root>
    </mxGraphModel>
  </diagram>
  <diagram id="BAQ0248c3pk5FknexFgv" name="通用变化">
    <mxGraphModel dx="954" dy="558" grid="0" gridSize="10" guides="1" tooltips="1" connect="1" arrows="1" fold="1" page="1" pageScale="1" pageWidth="1169" pageHeight="827" math="0" shadow="0">
      <root>
        <mxCell id="0" />
        <mxCell id="1" parent="0" />
        <mxCell id="Yagi_paOYz2UH55PHLS7-1" value="" style="endArrow=block;html=1;rounded=0;strokeWidth=2;endFill=1;startArrow=none;startFill=0;fillColor=#f8cecc;strokeColor=#b85450;" edge="1" parent="1">
          <mxGeometry width="50" height="50" relative="1" as="geometry">
            <mxPoint x="559.5" y="501" as="sourcePoint" />
            <mxPoint x="709.5" y="501" as="targetPoint" />
          </mxGeometry>
        </mxCell>
        <mxCell id="Yagi_paOYz2UH55PHLS7-2" value="" style="endArrow=block;html=1;rounded=0;strokeWidth=2;endFill=1;startArrow=none;startFill=0;" edge="1" parent="1">
          <mxGeometry width="50" height="50" relative="1" as="geometry">
            <mxPoint x="512.5" y="509" as="sourcePoint" />
            <mxPoint x="462.5" y="599" as="targetPoint" />
          </mxGeometry>
        </mxCell>
        <mxCell id="Yagi_paOYz2UH55PHLS7-3" value="" style="endArrow=block;html=1;rounded=0;strokeWidth=2;endFill=1;startArrow=none;startFill=0;" edge="1" parent="1">
          <mxGeometry width="50" height="50" relative="1" as="geometry">
            <mxPoint x="517.5" y="501" as="sourcePoint" />
            <mxPoint x="667.5" y="501" as="targetPoint" />
          </mxGeometry>
        </mxCell>
        <mxCell id="Yagi_paOYz2UH55PHLS7-4" value="" style="endArrow=block;html=1;rounded=0;strokeWidth=2;startArrow=none;startFill=0;endFill=1;" edge="1" parent="1">
          <mxGeometry width="50" height="50" relative="1" as="geometry">
            <mxPoint x="512.5" y="492" as="sourcePoint" />
            <mxPoint x="439.5" y="352" as="targetPoint" />
          </mxGeometry>
        </mxCell>
        <mxCell id="Yagi_paOYz2UH55PHLS7-5" value="" style="endArrow=block;html=1;rounded=0;strokeWidth=2;endFill=1;startArrow=none;startFill=0;fillColor=#dae8fc;strokeColor=#6c8ebf;" edge="1" parent="1">
          <mxGeometry width="50" height="50" relative="1" as="geometry">
            <mxPoint x="516.5" y="501" as="sourcePoint" />
            <mxPoint x="636.5" y="501" as="targetPoint" />
          </mxGeometry>
        </mxCell>
        <mxCell id="Yagi_paOYz2UH55PHLS7-6" value="" style="endArrow=block;html=1;rounded=0;strokeWidth=2;endFill=1;startArrow=none;startFill=0;fillColor=#dae8fc;strokeColor=#6c8ebf;" edge="1" parent="1">
          <mxGeometry width="50" height="50" relative="1" as="geometry">
            <mxPoint x="516.5" y="501" as="sourcePoint" />
            <mxPoint x="496.5" y="539" as="targetPoint" />
          </mxGeometry>
        </mxCell>
        <mxCell id="Yagi_paOYz2UH55PHLS7-7" value="" style="endArrow=block;html=1;rounded=0;strokeWidth=2;startArrow=none;startFill=0;endFill=1;fillColor=#dae8fc;strokeColor=#6c8ebf;" edge="1" parent="1">
          <mxGeometry width="50" height="50" relative="1" as="geometry">
            <mxPoint x="516.5" y="501" as="sourcePoint" />
            <mxPoint x="476.5" y="421" as="targetPoint" />
          </mxGeometry>
        </mxCell>
        <mxCell id="Yagi_paOYz2UH55PHLS7-8" value="A" style="text;html=1;align=center;verticalAlign=middle;resizable=0;points=[];autosize=1;strokeColor=none;fillColor=none;rotation=90;" vertex="1" parent="1">
          <mxGeometry x="625.4200000000001" y="505" width="30" height="30" as="geometry" />
        </mxCell>
        <mxCell id="Yagi_paOYz2UH55PHLS7-9" value="C" style="text;html=1;align=center;verticalAlign=middle;resizable=0;points=[];autosize=1;strokeColor=none;fillColor=none;rotation=90;" vertex="1" parent="1">
          <mxGeometry x="474.5" y="573" width="27" height="26" as="geometry" />
        </mxCell>
        <mxCell id="Yagi_paOYz2UH55PHLS7-10" value="B" style="text;html=1;align=center;verticalAlign=middle;resizable=0;points=[];autosize=1;strokeColor=none;fillColor=none;rotation=90;" vertex="1" parent="1">
          <mxGeometry x="448.5" y="341" width="26" height="26" as="geometry" />
        </mxCell>
        <mxCell id="Yagi_paOYz2UH55PHLS7-11" value="N3 ib" style="text;html=1;align=center;verticalAlign=middle;resizable=0;points=[];autosize=1;strokeColor=none;fillColor=none;" vertex="1" parent="1">
          <mxGeometry x="418" y="391" width="50" height="30" as="geometry" />
        </mxCell>
        <mxCell id="Yagi_paOYz2UH55PHLS7-12" value="N3 ia" style="text;html=1;align=center;verticalAlign=middle;resizable=0;points=[];autosize=1;strokeColor=none;fillColor=none;" vertex="1" parent="1">
          <mxGeometry x="571.5" y="477" width="50" height="30" as="geometry" />
        </mxCell>
        <mxCell id="Yagi_paOYz2UH55PHLS7-13" value="N3 ic" style="text;html=1;align=center;verticalAlign=middle;resizable=0;points=[];autosize=1;strokeColor=none;fillColor=none;" vertex="1" parent="1">
          <mxGeometry x="434.5" y="507" width="50" height="30" as="geometry" />
        </mxCell>
        <mxCell id="Yagi_paOYz2UH55PHLS7-14" value="I_alpha" style="text;html=1;align=center;verticalAlign=middle;resizable=0;points=[];autosize=1;strokeColor=none;fillColor=none;" vertex="1" parent="1">
          <mxGeometry x="699.5" y="479" width="60" height="30" as="geometry" />
        </mxCell>
        <mxCell id="Yagi_paOYz2UH55PHLS7-15" value="" style="endArrow=block;html=1;rounded=0;strokeWidth=2;endFill=1;startArrow=none;startFill=0;fillColor=#f8cecc;strokeColor=#b85450;entryX=-0.067;entryY=0.083;entryDx=0;entryDy=0;entryPerimeter=0;" edge="1" parent="1" target="Yagi_paOYz2UH55PHLS7-16">
          <mxGeometry width="50" height="50" relative="1" as="geometry">
            <mxPoint x="518.5" y="499" as="sourcePoint" />
            <mxPoint x="519.5" y="309" as="targetPoint" />
          </mxGeometry>
        </mxCell>
        <mxCell id="Yagi_paOYz2UH55PHLS7-16" value="I_beta" style="text;html=1;align=center;verticalAlign=middle;resizable=0;points=[];autosize=1;strokeColor=none;fillColor=none;" vertex="1" parent="1">
          <mxGeometry x="522.5" y="333" width="60" height="30" as="geometry" />
        </mxCell>
        <mxCell id="Yagi_paOYz2UH55PHLS7-17" value="" style="endArrow=none;dashed=1;html=1;rounded=0;" edge="1" parent="1">
          <mxGeometry width="50" height="50" relative="1" as="geometry">
            <mxPoint x="476.5" y="429" as="sourcePoint" />
            <mxPoint x="519.5" y="429" as="targetPoint" />
          </mxGeometry>
        </mxCell>
        <mxCell id="Yagi_paOYz2UH55PHLS7-18" value="" style="endArrow=none;dashed=1;html=1;rounded=0;" edge="1" parent="1">
          <mxGeometry width="50" height="50" relative="1" as="geometry">
            <mxPoint x="502.5" y="535" as="sourcePoint" />
            <mxPoint x="519.5" y="535" as="targetPoint" />
          </mxGeometry>
        </mxCell>
        <mxCell id="Yagi_paOYz2UH55PHLS7-19" value="" style="endArrow=none;dashed=1;html=1;rounded=0;" edge="1" parent="1">
          <mxGeometry width="50" height="50" relative="1" as="geometry">
            <mxPoint x="519.5" y="491" as="sourcePoint" />
            <mxPoint x="519.5" y="539" as="targetPoint" />
          </mxGeometry>
        </mxCell>
        <mxCell id="Yagi_paOYz2UH55PHLS7-20" value="" style="endArrow=none;html=1;rounded=0;edgeStyle=orthogonalEdgeStyle;curved=1;endFill=0;" edge="1" parent="1">
          <mxGeometry width="50" height="50" relative="1" as="geometry">
            <mxPoint x="519.5" y="472" as="sourcePoint" />
            <mxPoint x="506" y="479" as="targetPoint" />
          </mxGeometry>
        </mxCell>
        <mxCell id="Yagi_paOYz2UH55PHLS7-21" value="30°" style="text;html=1;align=center;verticalAlign=middle;resizable=0;points=[];autosize=1;strokeColor=none;fillColor=none;" vertex="1" parent="1">
          <mxGeometry x="482.5" y="433" width="40" height="30" as="geometry" />
        </mxCell>
        <mxCell id="Yagi_paOYz2UH55PHLS7-22" value="N2 i_beta" style="text;html=1;align=center;verticalAlign=middle;resizable=0;points=[];autosize=1;strokeColor=none;fillColor=none;" vertex="1" parent="1">
          <mxGeometry x="517.5" y="403" width="70" height="30" as="geometry" />
        </mxCell>
        <mxCell id="Yagi_paOYz2UH55PHLS7-23" value="N2 i_alpha" style="text;html=1;align=center;verticalAlign=middle;resizable=0;points=[];autosize=1;strokeColor=none;fillColor=none;" vertex="1" parent="1">
          <mxGeometry x="519.5" y="497" width="80" height="30" as="geometry" />
        </mxCell>
        <mxCell id="Yagi_paOYz2UH55PHLS7-24" value="" style="endArrow=block;html=1;rounded=0;strokeWidth=2;endFill=1;startArrow=none;startFill=0;" edge="1" parent="1">
          <mxGeometry width="50" height="50" relative="1" as="geometry">
            <mxPoint x="151" y="490" as="sourcePoint" />
            <mxPoint x="101" y="580" as="targetPoint" />
          </mxGeometry>
        </mxCell>
        <mxCell id="Yagi_paOYz2UH55PHLS7-25" value="" style="endArrow=block;html=1;rounded=0;strokeWidth=2;endFill=1;startArrow=none;startFill=0;" edge="1" parent="1">
          <mxGeometry width="50" height="50" relative="1" as="geometry">
            <mxPoint x="156" y="482" as="sourcePoint" />
            <mxPoint x="306" y="482" as="targetPoint" />
          </mxGeometry>
        </mxCell>
        <mxCell id="Yagi_paOYz2UH55PHLS7-26" value="" style="endArrow=block;html=1;rounded=0;strokeWidth=2;startArrow=none;startFill=0;endFill=1;" edge="1" parent="1">
          <mxGeometry width="50" height="50" relative="1" as="geometry">
            <mxPoint x="151" y="473" as="sourcePoint" />
            <mxPoint x="78" y="333" as="targetPoint" />
          </mxGeometry>
        </mxCell>
        <mxCell id="Yagi_paOYz2UH55PHLS7-27" value="" style="endArrow=block;html=1;rounded=0;strokeWidth=2;endFill=1;startArrow=none;startFill=0;fillColor=#dae8fc;strokeColor=#6c8ebf;" edge="1" parent="1">
          <mxGeometry width="50" height="50" relative="1" as="geometry">
            <mxPoint x="155" y="482" as="sourcePoint" />
            <mxPoint x="275" y="482" as="targetPoint" />
          </mxGeometry>
        </mxCell>
        <mxCell id="Yagi_paOYz2UH55PHLS7-28" value="" style="endArrow=block;html=1;rounded=0;strokeWidth=2;endFill=1;startArrow=none;startFill=0;fillColor=#dae8fc;strokeColor=#6c8ebf;" edge="1" parent="1">
          <mxGeometry width="50" height="50" relative="1" as="geometry">
            <mxPoint x="155" y="482" as="sourcePoint" />
            <mxPoint x="135" y="520" as="targetPoint" />
          </mxGeometry>
        </mxCell>
        <mxCell id="Yagi_paOYz2UH55PHLS7-29" value="" style="endArrow=block;html=1;rounded=0;strokeWidth=2;startArrow=none;startFill=0;endFill=1;fillColor=#dae8fc;strokeColor=#6c8ebf;" edge="1" parent="1">
          <mxGeometry width="50" height="50" relative="1" as="geometry">
            <mxPoint x="155" y="482" as="sourcePoint" />
            <mxPoint x="115" y="402" as="targetPoint" />
          </mxGeometry>
        </mxCell>
        <mxCell id="Yagi_paOYz2UH55PHLS7-30" value="A" style="text;html=1;align=center;verticalAlign=middle;resizable=0;points=[];autosize=1;strokeColor=none;fillColor=none;rotation=90;" vertex="1" parent="1">
          <mxGeometry x="315" y="460" width="30" height="30" as="geometry" />
        </mxCell>
        <mxCell id="Yagi_paOYz2UH55PHLS7-31" value="C" style="text;html=1;align=center;verticalAlign=middle;resizable=0;points=[];autosize=1;strokeColor=none;fillColor=none;rotation=90;" vertex="1" parent="1">
          <mxGeometry x="113" y="554" width="27" height="26" as="geometry" />
        </mxCell>
        <mxCell id="Yagi_paOYz2UH55PHLS7-32" value="B" style="text;html=1;align=center;verticalAlign=middle;resizable=0;points=[];autosize=1;strokeColor=none;fillColor=none;rotation=90;" vertex="1" parent="1">
          <mxGeometry x="87" y="322" width="26" height="26" as="geometry" />
        </mxCell>
        <mxCell id="Yagi_paOYz2UH55PHLS7-33" value="ic" style="text;html=1;align=center;verticalAlign=middle;resizable=0;points=[];autosize=1;strokeColor=none;fillColor=none;" vertex="1" parent="1">
          <mxGeometry x="131" y="401" width="27" height="26" as="geometry" />
        </mxCell>
        <mxCell id="Yagi_paOYz2UH55PHLS7-34" value="ia" style="text;html=1;align=center;verticalAlign=middle;resizable=0;points=[];autosize=1;strokeColor=none;fillColor=none;" vertex="1" parent="1">
          <mxGeometry x="221" y="460" width="27" height="26" as="geometry" />
        </mxCell>
        <mxCell id="Yagi_paOYz2UH55PHLS7-35" value="ic" style="text;html=1;align=center;verticalAlign=middle;resizable=0;points=[];autosize=1;strokeColor=none;fillColor=none;" vertex="1" parent="1">
          <mxGeometry x="144" y="496" width="27" height="26" as="geometry" />
        </mxCell>
        <mxCell id="Yagi_paOYz2UH55PHLS7-36" value="" style="shape=flexArrow;endArrow=classic;html=1;rounded=0;" edge="1" parent="1">
          <mxGeometry width="50" height="50" relative="1" as="geometry">
            <mxPoint x="280" y="441" as="sourcePoint" />
            <mxPoint x="356" y="439" as="targetPoint" />
          </mxGeometry>
        </mxCell>
      </root>
    </mxGraphModel>
  </diagram>
  <diagram id="EgXkKmk98WE2RC5Jc98n" name="park 变化">
    <mxGraphModel dx="954" dy="558" grid="1" gridSize="10" guides="1" tooltips="1" connect="1" arrows="1" fold="1" page="1" pageScale="1" pageWidth="1169" pageHeight="827" math="0" shadow="1">
      <root>
        <mxCell id="0" />
        <mxCell id="1" parent="0" />
        <mxCell id="o8einl_N5-TFryNaM5Mv-1" value="" style="endArrow=block;html=1;rounded=0;strokeWidth=2;endFill=1;startArrow=none;startFill=0;fillColor=#f8cecc;strokeColor=#b85450;" edge="1" parent="1">
          <mxGeometry width="50" height="50" relative="1" as="geometry">
            <mxPoint x="248.5" y="248" as="sourcePoint" />
            <mxPoint x="398.5" y="248" as="targetPoint" />
          </mxGeometry>
        </mxCell>
        <mxCell id="o8einl_N5-TFryNaM5Mv-2" value="" style="endArrow=block;html=1;rounded=0;strokeWidth=2;endFill=1;startArrow=none;startFill=0;" edge="1" parent="1">
          <mxGeometry width="50" height="50" relative="1" as="geometry">
            <mxPoint x="201.5" y="256" as="sourcePoint" />
            <mxPoint x="151.5" y="346" as="targetPoint" />
          </mxGeometry>
        </mxCell>
        <mxCell id="o8einl_N5-TFryNaM5Mv-3" value="" style="endArrow=block;html=1;rounded=0;strokeWidth=2;endFill=1;startArrow=none;startFill=0;" edge="1" parent="1">
          <mxGeometry width="50" height="50" relative="1" as="geometry">
            <mxPoint x="206.5" y="248" as="sourcePoint" />
            <mxPoint x="356.5" y="248" as="targetPoint" />
          </mxGeometry>
        </mxCell>
        <mxCell id="o8einl_N5-TFryNaM5Mv-4" value="" style="endArrow=block;html=1;rounded=0;strokeWidth=2;startArrow=none;startFill=0;endFill=1;" edge="1" parent="1">
          <mxGeometry width="50" height="50" relative="1" as="geometry">
            <mxPoint x="201.5" y="239" as="sourcePoint" />
            <mxPoint x="128.5" y="99" as="targetPoint" />
          </mxGeometry>
        </mxCell>
        <mxCell id="o8einl_N5-TFryNaM5Mv-5" value="" style="endArrow=block;html=1;rounded=0;strokeWidth=2;endFill=1;startArrow=none;startFill=0;fillColor=#dae8fc;strokeColor=#6c8ebf;" edge="1" parent="1">
          <mxGeometry width="50" height="50" relative="1" as="geometry">
            <mxPoint x="205.5" y="248" as="sourcePoint" />
            <mxPoint x="325.5" y="248" as="targetPoint" />
          </mxGeometry>
        </mxCell>
        <mxCell id="o8einl_N5-TFryNaM5Mv-6" value="" style="endArrow=block;html=1;rounded=0;strokeWidth=2;endFill=1;startArrow=none;startFill=0;fillColor=#dae8fc;strokeColor=#6c8ebf;" edge="1" parent="1">
          <mxGeometry width="50" height="50" relative="1" as="geometry">
            <mxPoint x="205.5" y="248" as="sourcePoint" />
            <mxPoint x="185.5" y="286" as="targetPoint" />
          </mxGeometry>
        </mxCell>
        <mxCell id="o8einl_N5-TFryNaM5Mv-7" value="" style="endArrow=block;html=1;rounded=0;strokeWidth=2;startArrow=none;startFill=0;endFill=1;fillColor=#dae8fc;strokeColor=#6c8ebf;" edge="1" parent="1">
          <mxGeometry width="50" height="50" relative="1" as="geometry">
            <mxPoint x="205.5" y="248" as="sourcePoint" />
            <mxPoint x="165.5" y="168" as="targetPoint" />
          </mxGeometry>
        </mxCell>
        <mxCell id="o8einl_N5-TFryNaM5Mv-8" value="A" style="text;html=1;align=center;verticalAlign=middle;resizable=0;points=[];autosize=1;strokeColor=none;fillColor=none;rotation=90;" vertex="1" parent="1">
          <mxGeometry x="314.4200000000001" y="252" width="30" height="30" as="geometry" />
        </mxCell>
        <mxCell id="o8einl_N5-TFryNaM5Mv-9" value="C" style="text;html=1;align=center;verticalAlign=middle;resizable=0;points=[];autosize=1;strokeColor=none;fillColor=none;rotation=90;" vertex="1" parent="1">
          <mxGeometry x="163.5" y="320" width="27" height="26" as="geometry" />
        </mxCell>
        <mxCell id="o8einl_N5-TFryNaM5Mv-10" value="B" style="text;html=1;align=center;verticalAlign=middle;resizable=0;points=[];autosize=1;strokeColor=none;fillColor=none;rotation=90;" vertex="1" parent="1">
          <mxGeometry x="137.5" y="88" width="26" height="26" as="geometry" />
        </mxCell>
        <mxCell id="o8einl_N5-TFryNaM5Mv-11" value="ib" style="text;html=1;align=center;verticalAlign=middle;resizable=0;points=[];autosize=1;strokeColor=none;fillColor=none;" vertex="1" parent="1">
          <mxGeometry x="118" y="140" width="27" height="26" as="geometry" />
        </mxCell>
        <mxCell id="o8einl_N5-TFryNaM5Mv-12" value="ia" style="text;html=1;align=center;verticalAlign=middle;resizable=0;points=[];autosize=1;strokeColor=none;fillColor=none;" vertex="1" parent="1">
          <mxGeometry x="271.5" y="226" width="27" height="26" as="geometry" />
        </mxCell>
        <mxCell id="o8einl_N5-TFryNaM5Mv-13" value="ic" style="text;html=1;align=center;verticalAlign=middle;resizable=0;points=[];autosize=1;strokeColor=none;fillColor=none;" vertex="1" parent="1">
          <mxGeometry x="134.5" y="256" width="27" height="26" as="geometry" />
        </mxCell>
        <mxCell id="o8einl_N5-TFryNaM5Mv-14" value="I_alpha" style="text;html=1;align=center;verticalAlign=middle;resizable=0;points=[];autosize=1;strokeColor=none;fillColor=none;" vertex="1" parent="1">
          <mxGeometry x="388.5" y="226" width="60" height="30" as="geometry" />
        </mxCell>
        <mxCell id="o8einl_N5-TFryNaM5Mv-15" value="" style="endArrow=block;html=1;rounded=0;strokeWidth=2;endFill=1;startArrow=none;startFill=0;fillColor=#f8cecc;strokeColor=#b85450;entryX=-0.067;entryY=0.083;entryDx=0;entryDy=0;entryPerimeter=0;" edge="1" parent="1" target="o8einl_N5-TFryNaM5Mv-16">
          <mxGeometry width="50" height="50" relative="1" as="geometry">
            <mxPoint x="207.5" y="246" as="sourcePoint" />
            <mxPoint x="208.5" y="56" as="targetPoint" />
          </mxGeometry>
        </mxCell>
        <mxCell id="o8einl_N5-TFryNaM5Mv-16" value="I_beta" style="text;html=1;align=center;verticalAlign=middle;resizable=0;points=[];autosize=1;strokeColor=none;fillColor=none;" vertex="1" parent="1">
          <mxGeometry x="211.5" y="80" width="60" height="30" as="geometry" />
        </mxCell>
        <mxCell id="o8einl_N5-TFryNaM5Mv-17" value="" style="endArrow=none;dashed=1;html=1;rounded=0;" edge="1" parent="1">
          <mxGeometry width="50" height="50" relative="1" as="geometry">
            <mxPoint x="165.5" y="176" as="sourcePoint" />
            <mxPoint x="208.5" y="176" as="targetPoint" />
          </mxGeometry>
        </mxCell>
        <mxCell id="o8einl_N5-TFryNaM5Mv-18" value="" style="endArrow=none;dashed=1;html=1;rounded=0;" edge="1" parent="1">
          <mxGeometry width="50" height="50" relative="1" as="geometry">
            <mxPoint x="191.5" y="282" as="sourcePoint" />
            <mxPoint x="208.5" y="282" as="targetPoint" />
          </mxGeometry>
        </mxCell>
        <mxCell id="o8einl_N5-TFryNaM5Mv-19" value="" style="endArrow=none;dashed=1;html=1;rounded=0;" edge="1" parent="1">
          <mxGeometry width="50" height="50" relative="1" as="geometry">
            <mxPoint x="208.5" y="238" as="sourcePoint" />
            <mxPoint x="208.5" y="286" as="targetPoint" />
          </mxGeometry>
        </mxCell>
        <mxCell id="o8einl_N5-TFryNaM5Mv-20" value="" style="endArrow=none;html=1;rounded=0;edgeStyle=orthogonalEdgeStyle;curved=1;endFill=0;" edge="1" parent="1">
          <mxGeometry width="50" height="50" relative="1" as="geometry">
            <mxPoint x="208.5" y="219" as="sourcePoint" />
            <mxPoint x="195" y="226" as="targetPoint" />
          </mxGeometry>
        </mxCell>
        <mxCell id="o8einl_N5-TFryNaM5Mv-21" value="30°" style="text;html=1;align=center;verticalAlign=middle;resizable=0;points=[];autosize=1;strokeColor=none;fillColor=none;" vertex="1" parent="1">
          <mxGeometry x="171.5" y="180" width="40" height="30" as="geometry" />
        </mxCell>
        <mxCell id="o8einl_N5-TFryNaM5Mv-22" value="i_beta" style="text;html=1;align=center;verticalAlign=middle;resizable=0;points=[];autosize=1;strokeColor=none;fillColor=none;" vertex="1" parent="1">
          <mxGeometry x="198.5" y="154" width="60" height="30" as="geometry" />
        </mxCell>
        <mxCell id="o8einl_N5-TFryNaM5Mv-23" value="i_alpha" style="text;html=1;align=center;verticalAlign=middle;resizable=0;points=[];autosize=1;strokeColor=none;fillColor=none;" vertex="1" parent="1">
          <mxGeometry x="218.5" y="244" width="60" height="30" as="geometry" />
        </mxCell>
        <mxCell id="o8einl_N5-TFryNaM5Mv-43" value="" style="shape=flexArrow;endArrow=classic;html=1;rounded=0;" edge="1" parent="1">
          <mxGeometry width="50" height="50" relative="1" as="geometry">
            <mxPoint x="410" y="194.5" as="sourcePoint" />
            <mxPoint x="490" y="194.5" as="targetPoint" />
          </mxGeometry>
        </mxCell>
        <mxCell id="o8einl_N5-TFryNaM5Mv-35" value="" style="endArrow=block;html=1;rounded=0;strokeWidth=2;endFill=1;startArrow=none;startFill=0;fillColor=#f8cecc;strokeColor=#b85450;" edge="1" parent="1">
          <mxGeometry width="50" height="50" relative="1" as="geometry">
            <mxPoint x="673" y="248.35" as="sourcePoint" />
            <mxPoint x="823" y="248.35" as="targetPoint" />
          </mxGeometry>
        </mxCell>
        <mxCell id="o8einl_N5-TFryNaM5Mv-36" value="" style="endArrow=block;html=1;rounded=0;strokeWidth=2;endFill=1;startArrow=none;startFill=0;fillColor=#f8cecc;strokeColor=#b85450;entryX=-0.067;entryY=0.083;entryDx=0;entryDy=0;entryPerimeter=0;" edge="1" parent="1">
          <mxGeometry width="50" height="50" relative="1" as="geometry">
            <mxPoint x="673.5" y="251" as="sourcePoint" />
            <mxPoint x="673" y="87" as="targetPoint" />
          </mxGeometry>
        </mxCell>
        <mxCell id="o8einl_N5-TFryNaM5Mv-37" value="I_alpha" style="text;html=1;align=center;verticalAlign=middle;resizable=0;points=[];autosize=1;strokeColor=none;fillColor=none;" vertex="1" parent="1">
          <mxGeometry x="783" y="244" width="60" height="30" as="geometry" />
        </mxCell>
        <mxCell id="o8einl_N5-TFryNaM5Mv-38" value="I_beta" style="text;html=1;align=center;verticalAlign=middle;resizable=0;points=[];autosize=1;strokeColor=none;fillColor=none;" vertex="1" parent="1">
          <mxGeometry x="683" y="80" width="60" height="30" as="geometry" />
        </mxCell>
        <mxCell id="o8einl_N5-TFryNaM5Mv-32" value="id" style="text;html=1;align=center;verticalAlign=middle;resizable=0;points=[];autosize=1;strokeColor=none;fillColor=none;rotation=-55;" vertex="1" parent="1">
          <mxGeometry x="753" y="184" width="30" height="30" as="geometry" />
        </mxCell>
        <mxCell id="o8einl_N5-TFryNaM5Mv-46" value="" style="group;rotation=15;" vertex="1" connectable="0" parent="1">
          <mxGeometry x="590.1090727903994" y="174.5" width="149.89" height="120.4759581582905" as="geometry" />
        </mxCell>
        <mxCell id="o8einl_N5-TFryNaM5Mv-41" value="&lt;span style=&quot;color: rgb(25, 27, 31); font-family: -apple-system, BlinkMacSystemFont, &amp;quot;Helvetica Neue&amp;quot;, &amp;quot;PingFang SC&amp;quot;, &amp;quot;Microsoft YaHei&amp;quot;, &amp;quot;Source Han Sans SC&amp;quot;, &amp;quot;Noto Sans CJK SC&amp;quot;, &amp;quot;WenQuanYi Micro Hei&amp;quot;, sans-serif; font-size: medium; text-align: start; text-wrap: wrap; background-color: rgb(255, 255, 255);&quot;&gt;θ&lt;/span&gt;" style="text;html=1;align=center;verticalAlign=middle;resizable=0;points=[];autosize=1;strokeColor=none;fillColor=none;rotation=-75;" vertex="1" parent="o8einl_N5-TFryNaM5Mv-46">
          <mxGeometry x="112.33999999999999" y="45.24" width="30" height="30" as="geometry" />
        </mxCell>
        <mxCell id="o8einl_N5-TFryNaM5Mv-24" value="" style="group;rotation=-220;" vertex="1" connectable="0" parent="o8einl_N5-TFryNaM5Mv-46">
          <mxGeometry x="32" y="72" width="80.34295593500133" height="21.69505016061919" as="geometry" />
        </mxCell>
        <mxCell id="o8einl_N5-TFryNaM5Mv-30" style="rounded=0;orthogonalLoop=1;jettySize=auto;html=1;exitX=0;exitY=0.5;exitDx=0;exitDy=0;fillColor=#e1d5e7;strokeColor=#9673a6;strokeWidth=2;" edge="1" parent="o8einl_N5-TFryNaM5Mv-24" source="o8einl_N5-TFryNaM5Mv-25">
          <mxGeometry relative="1" as="geometry">
            <mxPoint x="118" y="-53" as="targetPoint" />
          </mxGeometry>
        </mxCell>
        <mxCell id="o8einl_N5-TFryNaM5Mv-25" value="N" style="rounded=0;whiteSpace=wrap;html=1;fillColor=#FF0000;fontColor=#ffffff;strokeColor=#B20000;rotation=-579;" vertex="1" parent="o8einl_N5-TFryNaM5Mv-24">
          <mxGeometry x="35" y="-12" width="40" height="20" as="geometry" />
        </mxCell>
        <mxCell id="o8einl_N5-TFryNaM5Mv-31" style="rounded=0;orthogonalLoop=1;jettySize=auto;html=1;exitX=0;exitY=1;exitDx=0;exitDy=0;fillColor=#e1d5e7;strokeColor=#9673a6;strokeWidth=2;" edge="1" parent="o8einl_N5-TFryNaM5Mv-24" source="o8einl_N5-TFryNaM5Mv-26">
          <mxGeometry relative="1" as="geometry">
            <mxPoint x="-18" y="-58" as="targetPoint" />
          </mxGeometry>
        </mxCell>
        <mxCell id="o8einl_N5-TFryNaM5Mv-26" value="S" style="rounded=0;whiteSpace=wrap;html=1;rotation=-579;" vertex="1" parent="o8einl_N5-TFryNaM5Mv-24">
          <mxGeometry x="4" y="13" width="40" height="20" as="geometry" />
        </mxCell>
        <mxCell id="o8einl_N5-TFryNaM5Mv-33" value="iq" style="text;html=1;align=center;verticalAlign=middle;resizable=0;points=[];autosize=1;strokeColor=none;fillColor=none;rotation=-40;" vertex="1" parent="o8einl_N5-TFryNaM5Mv-46">
          <mxGeometry x="17" y="-3" width="30" height="30" as="geometry" />
        </mxCell>
        <mxCell id="o8einl_N5-TFryNaM5Mv-52" value="" style="endArrow=none;html=1;rounded=0;edgeStyle=orthogonalEdgeStyle;curved=1;exitX=0.25;exitY=0;exitDx=0;exitDy=0;" edge="1" parent="o8einl_N5-TFryNaM5Mv-46" source="o8einl_N5-TFryNaM5Mv-25">
          <mxGeometry width="50" height="50" relative="1" as="geometry">
            <mxPoint x="99.89092720960059" y="93.19999999999999" as="sourcePoint" />
            <mxPoint x="119.89092720960059" y="42.19999999999999" as="targetPoint" />
          </mxGeometry>
        </mxCell>
        <mxCell id="o8einl_N5-TFryNaM5Mv-54" value="" style="endArrow=none;dashed=1;html=1;rounded=0;" edge="1" parent="o8einl_N5-TFryNaM5Mv-46">
          <mxGeometry width="50" height="50" relative="1" as="geometry">
            <mxPoint x="39.89092720960059" y="45.5" as="sourcePoint" />
            <mxPoint x="79.89092720960059" y="15.5" as="targetPoint" />
          </mxGeometry>
        </mxCell>
        <mxCell id="o8einl_N5-TFryNaM5Mv-55" value="" style="endArrow=none;dashed=1;html=1;rounded=0;" edge="1" parent="o8einl_N5-TFryNaM5Mv-46">
          <mxGeometry width="50" height="50" relative="1" as="geometry">
            <mxPoint x="79.89092720960059" y="15.240000000000009" as="sourcePoint" />
            <mxPoint x="109.89092720960059" y="55.5" as="targetPoint" />
          </mxGeometry>
        </mxCell>
        <mxCell id="o8einl_N5-TFryNaM5Mv-53" value="" style="endArrow=none;dashed=1;html=1;rounded=0;" edge="1" parent="1">
          <mxGeometry width="50" height="50" relative="1" as="geometry">
            <mxPoint x="720" y="209.74" as="sourcePoint" />
            <mxPoint x="750" y="250" as="targetPoint" />
          </mxGeometry>
        </mxCell>
      </root>
    </mxGraphModel>
  </diagram>
</mxfile>
